<svg id="Layer_1" data-name="Layer 1" xmlns="http://www.w3.org/2000/svg" viewBox="0 0 341.04 131">
  <defs>
    <style>.cls-1{fill:#000;}.cls-2{fill:none;stroke:#000;stroke-miterlimit:10;stroke-width:0.4px;}</style>
  </defs>
  <title>endjin-comps-MS-wht</title>
  <path class="cls-1" d="M30.56,37.23H27.05V17.05q0-2.38.3-5.83h-.09a17.77,17.77,0,0,1-.9,2.92L16.15,37.23H14.44L4.2,14.31a17.5,17.5,0,0,1-.9-3.09H3.22c.11,1.21.16,3.16.16,5.87V37.23H0v-30H4.64l9.19,21a26.22,26.22,0,0,1,1.36,3.6h.14c.7-1.93,1.18-3.16,1.45-3.69L26.16,7.18h4.4V37.23"/>
  <path class="cls-1" d="M40.31,37.23H36.89V15.77h3.42V37.23M40.9,8.08a2.1,2.1,0,0,1-.67,1.6,2.2,2.2,0,0,1-1.59.64,2.17,2.17,0,0,1-1.58-.62,2.1,2.1,0,0,1-.65-1.62,2.15,2.15,0,0,1,.64-1.56,2.1,2.1,0,0,1,1.59-.66,2.19,2.19,0,0,1,1.61.65,2.15,2.15,0,0,1,.65,1.57"/>
  <path class="cls-1" d="M60.6,36.25a11.17,11.17,0,0,1-5.87,1.51,10.21,10.21,0,0,1-5.26-1.36,9.27,9.27,0,0,1-3.62-3.82A11.71,11.71,0,0,1,44.55,27a11.94,11.94,0,0,1,3-8.55,10.58,10.58,0,0,1,8.1-3.23,10.8,10.8,0,0,1,5,1.09v3.52a8.74,8.74,0,0,0-5.1-1.68,6.87,6.87,0,0,0-5.4,2.38,9,9,0,0,0-2.08,6.15,8.48,8.48,0,0,0,2,5.93,6.76,6.76,0,0,0,5.29,2.18A8.64,8.64,0,0,0,60.6,33v3.27"/>
  <path class="cls-1" d="M75.86,19.25a4.58,4.58,0,0,0-6.31,1.46,10,10,0,0,0-1.42,5.58V37.23H64.71V15.77h3.42v4.42h.09a7.55,7.55,0,0,1,2.19-3.51,5,5,0,0,1,3.4-1.29,5.44,5.44,0,0,1,2,.3v3.56"/>
  <path class="cls-1" d="M93.89,26.54a9.51,9.51,0,0,0-1.79-6.2A6.25,6.25,0,0,0,87,18.18a6.57,6.57,0,0,0-5.22,2.21,9.24,9.24,0,0,0-1.92,6.24,8.71,8.71,0,0,0,1.93,6A6.63,6.63,0,0,0,87,34.82a6.26,6.26,0,0,0,5.12-2.14,9.38,9.38,0,0,0,1.78-6.14m3.51-.12a11.57,11.57,0,0,1-2.9,8.22,10.07,10.07,0,0,1-7.76,3.12,9.87,9.87,0,0,1-7.57-3,11.21,11.21,0,0,1-2.83-8,11.82,11.82,0,0,1,2.9-8.41,10.46,10.46,0,0,1,8-3.09,9.52,9.52,0,0,1,7.46,3c1.8,2,2.7,4.72,2.7,8.19"/>
  <path class="cls-1" d="M113.31,31.49A5.55,5.55,0,0,1,111.17,36a8.76,8.76,0,0,1-5.69,1.74,10.6,10.6,0,0,1-5.31-1.3V32.77a8.62,8.62,0,0,0,5.56,2q4.06,0,4.07-3a2.66,2.66,0,0,0-.79-2,15.78,15.78,0,0,0-3.62-2.06,10.75,10.75,0,0,1-4-2.61,5.56,5.56,0,0,1-1.17-3.7A5.57,5.57,0,0,1,102.34,17a8.14,8.14,0,0,1,5.41-1.78,10.26,10.26,0,0,1,4.58,1v3.46a8,8,0,0,0-4.85-1.53,4.17,4.17,0,0,0-2.72.84,2.66,2.66,0,0,0-1,2.16,2.9,2.9,0,0,0,.8,2.19,11.82,11.82,0,0,0,3.28,1.81,11.85,11.85,0,0,1,4.28,2.73,5.28,5.28,0,0,1,1.23,3.58"/>
  <path class="cls-1" d="M133.17,26.54a9.51,9.51,0,0,0-1.78-6.2,6.26,6.26,0,0,0-5.11-2.16,6.57,6.57,0,0,0-5.22,2.21,9.24,9.24,0,0,0-1.92,6.24,8.71,8.71,0,0,0,1.93,6,6.61,6.61,0,0,0,5.21,2.17,6.27,6.27,0,0,0,5.12-2.14,9.38,9.38,0,0,0,1.77-6.14m3.51-.12a11.57,11.57,0,0,1-2.89,8.22A10.08,10.08,0,0,1,126,37.76a9.85,9.85,0,0,1-7.57-3,11.21,11.21,0,0,1-2.83-8c0-3.54,1-6.35,2.9-8.41a10.43,10.43,0,0,1,8-3.09,9.54,9.54,0,0,1,7.46,3c1.79,2,2.69,4.72,2.69,8.19"/>
  <path class="cls-1" d="M150.72,8.48a4.54,4.54,0,0,0-2.28-.57q-3.58,0-3.59,4.55v3.31h5v2.92h-5V37.23h-3.43V18.69h-3.63V15.77h3.63V12.29A7.33,7.33,0,0,1,143.34,7a6.47,6.47,0,0,1,4.89-2,6.75,6.75,0,0,1,2.49.38v3.1"/>
  <path class="cls-1" d="M163.16,37a6.53,6.53,0,0,1-3.21.69c-3.74,0-5.6-2.1-5.6-6.32V18.69h-3.68V15.77h3.68V10.53l3.42-1.11v6.35h5.39v2.92h-5.39V30.8a5,5,0,0,0,.74,3.07,2.93,2.93,0,0,0,2.44.91,3.61,3.61,0,0,0,2.21-.69V37"/>
  <path class="cls-1" d="M49.88,57.73q0-6-7-6H38.75V64.08h3.67A8.27,8.27,0,0,0,48,62.43a5.85,5.85,0,0,0,1.92-4.7m3.68-.19a9,9,0,0,1-3,7,11.38,11.38,0,0,1-7.86,2.67h-4V78.62H35.24V48.57h8.23c3.2,0,5.68.78,7.45,2.36a8.39,8.39,0,0,1,2.64,6.61"/>
  <path class="cls-1" d="M68,67.76l-5.18.74a7.56,7.56,0,0,0-3.72,1.27,3.54,3.54,0,0,0-1.06,2.88,3.25,3.25,0,0,0,1.14,2.59,4.41,4.41,0,0,0,3,1,5.48,5.48,0,0,0,4.21-1.8A6.39,6.39,0,0,0,68,69.9V67.76m3.43,10.86H68V75.27h-.08a7.17,7.17,0,0,1-6.58,3.87,7.07,7.07,0,0,1-5-1.68,5.84,5.84,0,0,1-1.86-4.54q0-6,7.06-7L68,65q0-5.44-4.41-5.45a10.57,10.57,0,0,0-7,2.62V58.67a10.36,10.36,0,0,1,3.22-1.37,14.78,14.78,0,0,1,4-.66q7.55,0,7.55,8v14"/>
  <path class="cls-1" d="M88,60.64a4.58,4.58,0,0,0-6.31,1.46,9.91,9.91,0,0,0-1.42,5.58V78.62H76.82V57.16h3.43v4.42h.08a7.64,7.64,0,0,1,2.2-3.51,5,5,0,0,1,3.4-1.29,5.51,5.51,0,0,1,2,.3v3.56"/>
  <path class="cls-1" d="M103.94,78.41a6.53,6.53,0,0,1-3.21.69c-3.74,0-5.6-2.11-5.6-6.33V60.07H91.45V57.16h3.68V51.92l3.42-1.11v6.35h5.39v2.91H98.55V72.19a5,5,0,0,0,.73,3.07,3,3,0,0,0,2.45.91,3.61,3.61,0,0,0,2.21-.69v2.93"/>
  <path class="cls-1" d="M126.49,78.62h-3.43V66.38q0-6.81-5-6.81a5.43,5.43,0,0,0-4.23,1.92,7.07,7.07,0,0,0-1.7,4.89V78.62h-3.43V57.16h3.43v3.56h.08a7.68,7.68,0,0,1,7-4.08,6.48,6.48,0,0,1,5.38,2.3,10.25,10.25,0,0,1,1.85,6.54V78.62"/>
  <path class="cls-1" d="M145.39,65.84A7.08,7.08,0,0,0,144,61.22,4.84,4.84,0,0,0,140,59.57,5.5,5.5,0,0,0,136,61.29a8,8,0,0,0-2.13,4.55h11.55m3.51,2.91H133.8a8,8,0,0,0,1.91,5.54,6.65,6.65,0,0,0,5.06,1.92,10.46,10.46,0,0,0,6.63-2.35v3.21A12.24,12.24,0,0,1,140,79.14a9,9,0,0,1-7.15-3c-1.71-2-2.56-4.71-2.56-8.21a13,13,0,0,1,1.28-5.81,10,10,0,0,1,3.54-4.08,9.12,9.12,0,0,1,5-1.44,8.08,8.08,0,0,1,6.49,2.71q2.33,2.71,2.33,7.6v1.8"/>
  <path class="cls-1" d="M164,60.64a4.58,4.58,0,0,0-6.31,1.46,9.91,9.91,0,0,0-1.42,5.58V78.62h-3.43V57.16h3.43v4.42h.08a7.64,7.64,0,0,1,2.2-3.51,5,5,0,0,1,3.4-1.29,5.47,5.47,0,0,1,2.05.3v3.56"/>
  <path class="cls-1" d="M91.21,116l-.66,1.85h0a18,18,0,0,0-.62-1.83l-3.53-8.88H82.91v14.12h2.27v-8.68c0-.53,0-1.18,0-1.92,0-.38-.05-.68-.06-.91h0a10.82,10.82,0,0,0,.32,1.21l4.23,10.3h1.59l4.2-10.39a8.05,8.05,0,0,0,.29-1.12h0c0,1-.1,2-.11,2.54v9h2.43V107.15H94.83L91.21,116"/>
  <polyline class="cls-1" points="100.43 121.27 102.8 121.27 102.8 113.63 102.8 111.15 100.43 111.15 100.43 116.13 100.43 121.27"/>
  <path class="cls-1" d="M101.64,106.85a1.45,1.45,0,0,0-1,.4,1.32,1.32,0,0,0-.43,1,1.29,1.29,0,0,0,.42,1,1.48,1.48,0,0,0,1,.38,1.5,1.5,0,0,0,1-.38,1.29,1.29,0,0,0,.42-1,1.34,1.34,0,0,0-.41-1,1.41,1.41,0,0,0-1-.41"/>
  <path class="cls-1" d="M111.2,111.05a6.92,6.92,0,0,0-1.33-.14,5.82,5.82,0,0,0-2.88.69,4.69,4.69,0,0,0-1.9,2,6.18,6.18,0,0,0-.66,2.91,5.38,5.38,0,0,0,.64,2.6,4.45,4.45,0,0,0,1.77,1.8,5.3,5.3,0,0,0,2.6.64,5.63,5.63,0,0,0,2.86-.68h0v-2.18l-.1.07a4.4,4.4,0,0,1-1.16.6,3.44,3.44,0,0,1-1.14.23,2.94,2.94,0,0,1-2.22-.87,3.42,3.42,0,0,1-.82-2.41,3.49,3.49,0,0,1,.86-2.47,2.89,2.89,0,0,1,2.22-.92,3.77,3.77,0,0,1,2.26.79l.1.07v-2.3l0,0a4.13,4.13,0,0,0-1.1-.37"/>
  <path class="cls-1" d="M119,111a2.42,2.42,0,0,0-1.59.57,3.23,3.23,0,0,0-.91,1.35h0v-1.75h-2.37v10.12h2.37V116.1a3.6,3.6,0,0,1,.59-2.15,1.83,1.83,0,0,1,1.54-.82,2.8,2.8,0,0,1,.71.11,1.84,1.84,0,0,1,.56.22l.1.07v-2.39l0,0A2.36,2.36,0,0,0,119,111"/>
  <path class="cls-1" d="M127.35,118.7a2.42,2.42,0,0,1-2,.85,2.53,2.53,0,0,1-2-.87,3.69,3.69,0,0,1-.73-2.43,3.88,3.88,0,0,1,.73-2.5,2.52,2.52,0,0,1,2-.87,2.46,2.46,0,0,1,2,.84,3.75,3.75,0,0,1,.72,2.47,4,4,0,0,1-.68,2.51m-1.89-7.79a5.26,5.26,0,0,0-3.92,1.45,5.44,5.44,0,0,0-1.42,4,5.18,5.18,0,0,0,1.38,3.79,5,5,0,0,0,3.72,1.4,5.11,5.11,0,0,0,3.85-1.48,5.45,5.45,0,0,0,1.42-3.93,5.31,5.31,0,0,0-1.33-3.81,4.92,4.92,0,0,0-3.7-1.39"/>
  <path class="cls-1" d="M135.75,115.33a5.25,5.25,0,0,1-1.43-.74,1,1,0,0,1-.28-.78.88.88,0,0,1,.36-.72,1.65,1.65,0,0,1,1-.29,4,4,0,0,1,1.22.19,3.71,3.71,0,0,1,1.06.49l.1.07v-2.2l0,0a5.46,5.46,0,0,0-1.07-.3,6.75,6.75,0,0,0-1.19-.12,4.33,4.33,0,0,0-2.78.86,2.76,2.76,0,0,0-1.08,2.25,3.06,3.06,0,0,0,.23,1.25,2.42,2.42,0,0,0,.72.94,6.18,6.18,0,0,0,1.46.82,12.38,12.38,0,0,1,1.21.57,1.82,1.82,0,0,1,.54.44,1,1,0,0,1,.14.57c0,.68-.5,1-1.55,1a4.25,4.25,0,0,1-1.31-.24,5,5,0,0,1-1.34-.68l-.1-.07V121h0a6.07,6.07,0,0,0,1.28.4,7.12,7.12,0,0,0,1.36.16,4.62,4.62,0,0,0,2.93-.87,2.8,2.8,0,0,0,1.1-2.3,2.66,2.66,0,0,0-.59-1.74,5,5,0,0,0-2-1.28"/>
  <path class="cls-1" d="M146.6,118.7a2.39,2.39,0,0,1-2,.85,2.51,2.51,0,0,1-2-.87,3.64,3.64,0,0,1-.74-2.43,3.82,3.82,0,0,1,.74-2.5,2.49,2.49,0,0,1,2-.87,2.45,2.45,0,0,1,2,.84,3.7,3.7,0,0,1,.72,2.47,4,4,0,0,1-.68,2.51m-1.88-7.79a5.27,5.27,0,0,0-3.93,1.45,5.48,5.48,0,0,0-1.42,4,5.18,5.18,0,0,0,1.39,3.79,5,5,0,0,0,3.71,1.4,5.1,5.1,0,0,0,3.85-1.48,5.45,5.45,0,0,0,1.42-3.93,5.31,5.31,0,0,0-1.33-3.81,4.9,4.9,0,0,0-3.69-1.39"/>
  <path class="cls-1" d="M162.39,113.09v-1.94H160v-3l-.08,0-2.26.69,0,0v2.28h-3.56v-1.27a2,2,0,0,1,.39-1.35,1.38,1.38,0,0,1,1.1-.45,2.58,2.58,0,0,1,1.05.24l.08,0v-2h0a4,4,0,0,0-1.33-.18,3.91,3.91,0,0,0-1.89.45,3.23,3.23,0,0,0-1.3,1.29,3.81,3.81,0,0,0-.46,1.89v1.4H150v1.94h1.68v8.18h2.4v-8.18h3.56v5.2c0,2.14,1,3.23,3,3.23a4.64,4.64,0,0,0,1-.12,2.58,2.58,0,0,0,.74-.23l0,0v-2l-.09.06a1.57,1.57,0,0,1-.49.21,1.65,1.65,0,0,1-.47.09,1.26,1.26,0,0,1-1-.38,2,2,0,0,1-.33-1.3v-4.78h2.4"/>
  <polyline class="cls-1" points="63.54 113.63 52.38 113.63 52.38 102.44 63.54 102.44 63.54 113.63"/>
  <polyline class="cls-1" points="75.86 113.63 64.7 113.63 64.7 102.44 75.86 102.44 75.86 113.63"/>
  <polyline class="cls-1" points="63.54 126 52.38 126 52.38 114.8 63.54 114.8 63.54 126"/>
  <polyline class="cls-1" points="75.86 126 64.7 126 64.7 114.8 75.86 114.8 75.86 126"/>
  <line class="cls-2" x1="181" x2="181" y2="131"/>
  <path class="cls-1" d="M209.84,46.53a7.33,7.33,0,0,1-3.75,1,5.46,5.46,0,0,1-2.8-.72,4.74,4.74,0,0,1-1.89-2,6.38,6.38,0,0,1-.67-2.93,5.86,5.86,0,0,1,1.64-4.26,5.58,5.58,0,0,1,4.18-1.68,7.18,7.18,0,0,1,3.07.59V38a5.85,5.85,0,0,0-3.22-.87,4.22,4.22,0,0,0-2.21.59,4.06,4.06,0,0,0-1.53,1.67,5.17,5.17,0,0,0-.55,2.4,4.79,4.79,0,0,0,1.11,3.34,3.93,3.93,0,0,0,3,1.22,4.67,4.67,0,0,0,2.27-.53V42.64h-2.45V41.46h3.76v5.07"/>
  <path class="cls-1" d="M219.54,43.27a4.3,4.3,0,0,1-1.09,3.07,3.77,3.77,0,0,1-2.9,1.16,3.71,3.71,0,0,1-2.83-1.13,4.21,4.21,0,0,1-1.06-3,4.4,4.4,0,0,1,1.09-3.13,3.9,3.9,0,0,1,3-1.16,3.58,3.58,0,0,1,2.79,1.12,4.38,4.38,0,0,1,1,3.05h0m-1.31,0a3.53,3.53,0,0,0-.68-2.32,2.33,2.33,0,0,0-1.9-.8,2.44,2.44,0,0,0-2,.83,3.44,3.44,0,0,0-.71,2.32,3.32,3.32,0,0,0,.71,2.25,2.54,2.54,0,0,0,2,.8,2.32,2.32,0,0,0,1.91-.8,3.48,3.48,0,0,0,.67-2.28"/>
  <polyline class="cls-1" points="222.8 47.3 221.52 47.3 221.52 35.46 222.8 35.46 222.8 47.3"/>
  <path class="cls-1" d="M232.16,47.3h-1.28V45.94h0a3,3,0,0,1-2.75,1.56,3,3,0,0,1-2.42-1.09,4.44,4.44,0,0,1-.9-2.91,4.8,4.8,0,0,1,1-3.19,3.29,3.29,0,0,1,2.67-1.21,2.6,2.6,0,0,1,2.4,1.3h0V35.46h1.28V47.3h0m-1.28-3.62V42.5a2.25,2.25,0,0,0-2.27-2.3,2.19,2.19,0,0,0-1.83.86,3.64,3.64,0,0,0-.68,2.36,3.37,3.37,0,0,0,.64,2.18,2.06,2.06,0,0,0,1.72.8,2.22,2.22,0,0,0,1.74-.76,2.87,2.87,0,0,0,.68-2"/>
  <path class="cls-1" d="M246.24,46.84a6.49,6.49,0,0,1-3.09.66,5.5,5.5,0,0,1-2.76-.7,4.72,4.72,0,0,1-1.86-2,6.4,6.4,0,0,1-.64-2.92,6.58,6.58,0,0,1,.72-3.09,5.33,5.33,0,0,1,2-2.14,5.67,5.67,0,0,1,2.95-.77,6.61,6.61,0,0,1,2.64.46v1.39a5.34,5.34,0,0,0-2.66-.67,4.25,4.25,0,0,0-2.25.59,4,4,0,0,0-1.53,1.67,5.48,5.48,0,0,0-.54,2.48,5.18,5.18,0,0,0,.51,2.35,3.68,3.68,0,0,0,1.44,1.58,4,4,0,0,0,2.12.55,5.43,5.43,0,0,0,2.91-.75v1.28"/>
  <polyline class="cls-1" points="249.63 47.3 248.35 47.3 248.35 35.46 249.63 35.46 249.63 47.3"/>
  <path class="cls-1" d="M259.49,43.27a4.3,4.3,0,0,1-1.09,3.07,4.16,4.16,0,0,1-5.73,0,4.2,4.2,0,0,1-1-3,4.39,4.39,0,0,1,1.08-3.13,3.92,3.92,0,0,1,3-1.16,3.58,3.58,0,0,1,2.79,1.12,4.38,4.38,0,0,1,1,3.05h0m-1.31,0a3.58,3.58,0,0,0-.67-2.32,2.36,2.36,0,0,0-1.91-.8,2.43,2.43,0,0,0-1.95.83,3.39,3.39,0,0,0-.72,2.32,3.27,3.27,0,0,0,.72,2.25,2.5,2.5,0,0,0,1.95.8,2.32,2.32,0,0,0,1.91-.8,3.43,3.43,0,0,0,.67-2.28"/>
  <path class="cls-1" d="M267.93,47.3h-1.28V46h0a2.62,2.62,0,0,1-2.46,1.47q-2.87,0-2.87-3.42V39.3h1.28v4.58c0,1.68.65,2.52,1.94,2.52a2,2,0,0,0,1.55-.69,2.69,2.69,0,0,0,.59-1.8V39.3h1.28v8"/>
  <path class="cls-1" d="M277.28,47.3H276V45.94h0a3,3,0,0,1-2.75,1.56,3,3,0,0,1-2.42-1.09,4.44,4.44,0,0,1-.9-2.91,4.8,4.8,0,0,1,1-3.19,3.29,3.29,0,0,1,2.67-1.21,2.6,2.6,0,0,1,2.4,1.3h0V35.46h1.28V47.3h0M276,43.68V42.5a2.25,2.25,0,0,0-2.27-2.3,2.19,2.19,0,0,0-1.83.86,3.64,3.64,0,0,0-.68,2.36,3.37,3.37,0,0,0,.64,2.18,2.06,2.06,0,0,0,1.72.8,2.22,2.22,0,0,0,1.74-.76,2.87,2.87,0,0,0,.68-2"/>
  <path class="cls-1" d="M290.59,39.44a3.36,3.36,0,0,1-1.12,2.63,4.29,4.29,0,0,1-2.94,1h-1.48V47.3h-1.31V36.1h3.08a4,4,0,0,1,2.78.88,3.1,3.1,0,0,1,1,2.46h0m-1.37.07c0-1.48-.88-2.23-2.63-2.23h-1.54v4.6h1.38a3.1,3.1,0,0,0,2.07-.61,2.19,2.19,0,0,0,.72-1.76"/>
  <polyline class="cls-1" points="293.81 47.3 292.53 47.3 292.53 35.46 293.81 35.46 293.81 47.3"/>
  <path class="cls-1" d="M302.06,47.3h-1.28V46.05h0a2.69,2.69,0,0,1-2.46,1.45,2.64,2.64,0,0,1-1.85-.63,2.2,2.2,0,0,1-.7-1.7c0-1.48.88-2.35,2.65-2.6l2.39-.34c0-1.35-.55-2-1.64-2a3.93,3.93,0,0,0-2.61,1V39.86a4.15,4.15,0,0,1,1.2-.51,5.71,5.71,0,0,1,1.51-.25q2.82,0,2.82,3v5.2h0m-1.28-4-1.93.28a2.78,2.78,0,0,0-1.39.47,1.3,1.3,0,0,0-.4,1.07,1.2,1.2,0,0,0,.43,1,1.64,1.64,0,0,0,1.1.36,2,2,0,0,0,1.57-.67,2.36,2.36,0,0,0,.62-1.68v-.8"/>
  <path class="cls-1" d="M308.18,47.22a2.5,2.5,0,0,1-1.21.26c-1.39,0-2.09-.79-2.09-2.36V40.39H303.5V39.3h1.38V37.35l1.28-.42V39.3h2v1.09h-2V44.9a1.89,1.89,0,0,0,.27,1.15,1.15,1.15,0,0,0,.92.34,1.39,1.39,0,0,0,.83-.26v1.09"/>
  <path class="cls-1" d="M313.83,36.58a1.74,1.74,0,0,0-.86-.21c-.89,0-1.34.57-1.34,1.7V39.3h1.88v1.09h-1.88V47.3h-1.28V40.39H309V39.3h1.36V38a2.73,2.73,0,0,1,.72-2,2.43,2.43,0,0,1,1.83-.75,2.38,2.38,0,0,1,.93.15v1.15"/>
  <path class="cls-1" d="M322.13,43.27A4.3,4.3,0,0,1,321,46.34a4.16,4.16,0,0,1-5.73,0,4.2,4.2,0,0,1-1.05-3,4.39,4.39,0,0,1,1.08-3.13,3.92,3.92,0,0,1,3-1.16,3.58,3.58,0,0,1,2.79,1.12,4.38,4.38,0,0,1,1,3.05h0m-1.31,0a3.58,3.58,0,0,0-.67-2.32,2.36,2.36,0,0,0-1.91-.8,2.43,2.43,0,0,0-1.95.83,3.39,3.39,0,0,0-.72,2.32,3.27,3.27,0,0,0,.72,2.25,2.5,2.5,0,0,0,1.95.8,2.32,2.32,0,0,0,1.91-.8,3.43,3.43,0,0,0,.67-2.28"/>
  <path class="cls-1" d="M328.28,40.6a1.52,1.52,0,0,0-1-.26,1.6,1.6,0,0,0-1.38.8,3.67,3.67,0,0,0-.54,2.08V47.3h-1.28v-8h1.28V41h0a2.78,2.78,0,0,1,.82-1.31,1.88,1.88,0,0,1,1.27-.48,2.11,2.11,0,0,1,.76.11V40.6"/>
  <path class="cls-1" d="M341,47.3h-1.28V42.71a3.39,3.39,0,0,0-.42-1.93A1.54,1.54,0,0,0,338,40.2a1.72,1.72,0,0,0-1.4.75,2.86,2.86,0,0,0-.57,1.79V47.3h-1.28V42.55c0-1.57-.61-2.35-1.82-2.35a1.69,1.69,0,0,0-1.39.71,2.87,2.87,0,0,0-.55,1.83V47.3h-1.28v-8H331v1.27h0a2.72,2.72,0,0,1,2.48-1.47,2.43,2.43,0,0,1,1.41.44,2.26,2.26,0,0,1,.86,1.23,2.87,2.87,0,0,1,2.66-1.67q2.64,0,2.64,3.27V47.3"/>
  <path class="cls-1" d="M209.84,69.53a7.33,7.33,0,0,1-3.75,1,5.46,5.46,0,0,1-2.8-.72,4.74,4.74,0,0,1-1.89-2,6.38,6.38,0,0,1-.67-2.93,5.86,5.86,0,0,1,1.64-4.26,5.58,5.58,0,0,1,4.18-1.68,7.18,7.18,0,0,1,3.07.59V61a5.85,5.85,0,0,0-3.22-.87,4.22,4.22,0,0,0-2.21.59,4.06,4.06,0,0,0-1.53,1.67,5.17,5.17,0,0,0-.55,2.4,4.79,4.79,0,0,0,1.11,3.34,3.93,3.93,0,0,0,3,1.22,4.67,4.67,0,0,0,2.27-.53V65.64h-2.45V64.46h3.76v5.07"/>
  <path class="cls-1" d="M219.54,66.27a4.3,4.3,0,0,1-1.09,3.07,3.77,3.77,0,0,1-2.9,1.16,3.71,3.71,0,0,1-2.83-1.13,4.21,4.21,0,0,1-1.06-3,4.4,4.4,0,0,1,1.09-3.13,3.9,3.9,0,0,1,3-1.16,3.58,3.58,0,0,1,2.79,1.12,4.38,4.38,0,0,1,1,3h0m-1.31,0a3.53,3.53,0,0,0-.68-2.32,2.33,2.33,0,0,0-1.9-.8,2.44,2.44,0,0,0-2,.83,3.44,3.44,0,0,0-.71,2.32,3.32,3.32,0,0,0,.71,2.25,2.54,2.54,0,0,0,2,.8,2.32,2.32,0,0,0,1.91-.8,3.48,3.48,0,0,0,.67-2.28"/>
  <polyline class="cls-1" points="222.8 70.3 221.52 70.3 221.52 58.46 222.8 58.46 222.8 70.3"/>
  <path class="cls-1" d="M232.16,70.3h-1.28V68.94h0a3,3,0,0,1-2.75,1.56,3,3,0,0,1-2.42-1.09,4.44,4.44,0,0,1-.9-2.91,4.8,4.8,0,0,1,1-3.19,3.29,3.29,0,0,1,2.67-1.21,2.6,2.6,0,0,1,2.4,1.3h0V58.46h1.28V70.3h0m-1.28-3.62V65.5a2.25,2.25,0,0,0-2.27-2.3,2.19,2.19,0,0,0-1.83.86,3.64,3.64,0,0,0-.68,2.36,3.37,3.37,0,0,0,.64,2.18,2.06,2.06,0,0,0,1.72.8,2.22,2.22,0,0,0,1.74-.76,2.87,2.87,0,0,0,.68-2"/>
  <path class="cls-1" d="M247.63,64.56a6,6,0,0,1-.75,3,5.13,5.13,0,0,1-2.13,2,6.91,6.91,0,0,1-3.17.7h-3V59.1h3.09q5.92,0,5.92,5.46h0m-1.38,0q0-4.31-4.57-4.31h-1.75v8.83h1.67A4.7,4.7,0,0,0,245,67.93a4.41,4.41,0,0,0,1.22-3.34"/>
  <path class="cls-1" d="M255.33,70.3h-1.28V69.05h0a2.9,2.9,0,0,1-4.32.82,2.19,2.19,0,0,1-.69-1.7c0-1.48.88-2.35,2.64-2.6l2.4-.34c0-1.35-.55-2-1.65-2a4,4,0,0,0-2.61,1V62.86a4.28,4.28,0,0,1,1.2-.51,5.78,5.78,0,0,1,1.52-.25q2.82,0,2.82,3v5.2h0m-1.28-4-1.94.28a2.86,2.86,0,0,0-1.39.47,1.3,1.3,0,0,0-.4,1.07,1.2,1.2,0,0,0,.43,1,1.66,1.66,0,0,0,1.1.36,2,2,0,0,0,1.57-.67,2.37,2.37,0,0,0,.63-1.68v-.8"/>
  <path class="cls-1" d="M261.44,70.22a2.48,2.48,0,0,1-1.2.26c-1.4,0-2.1-.79-2.1-2.36V63.39h-1.37V62.3h1.37V60.35l1.28-.42V62.3h2v1.09h-2V67.9a1.88,1.88,0,0,0,.28,1.15,1.11,1.11,0,0,0,.91.34,1.37,1.37,0,0,0,.83-.26v1.09"/>
  <path class="cls-1" d="M268.8,70.3h-1.28V69.05h0A2.7,2.7,0,0,1,265,70.5a2.64,2.64,0,0,1-1.85-.63,2.17,2.17,0,0,1-.7-1.7c0-1.48.88-2.35,2.64-2.6l2.4-.34c0-1.35-.55-2-1.65-2a4,4,0,0,0-2.61,1V62.86a4.42,4.42,0,0,1,1.2-.51A5.78,5.78,0,0,1,266,62.1q2.82,0,2.82,3v5.2h0m-1.28-4-1.94.28a2.86,2.86,0,0,0-1.39.47,1.34,1.34,0,0,0-.4,1.07,1.23,1.23,0,0,0,.43,1,1.67,1.67,0,0,0,1.1.36,2,2,0,0,0,1.57-.67,2.37,2.37,0,0,0,.63-1.68v-.8"/>
  <path class="cls-1" d="M283.76,70.3H282.3l-1.18-3.13h-4.75l-1.12,3.13H273.8l4.28-11.2h1.36l4.32,11.2h0M280.69,66l-1.76-4.77a6.94,6.94,0,0,1-.18-.75h0a4.51,4.51,0,0,1-.17.75L276.8,66h3.89"/>
  <path class="cls-1" d="M291.87,70.3h-1.28V65.74c0-1.7-.62-2.54-1.86-2.54a2,2,0,0,0-1.58.72,2.64,2.64,0,0,0-.64,1.82V70.3h-1.28v-8h1.28v1.33h0a2.86,2.86,0,0,1,2.62-1.53,2.43,2.43,0,0,1,2,.86,3.83,3.83,0,0,1,.69,2.44v4.9"/>
  <path class="cls-1" d="M299.94,70.3h-1.28V69.05h0a2.89,2.89,0,0,1-4.31.82,2.19,2.19,0,0,1-.69-1.7c0-1.48.88-2.35,2.64-2.6l2.4-.34c0-1.35-.55-2-1.65-2a3.93,3.93,0,0,0-2.61,1V62.86a4.15,4.15,0,0,1,1.2-.51,5.71,5.71,0,0,1,1.52-.25q2.82,0,2.82,3v5.2h0m-1.28-4-1.94.28a2.82,2.82,0,0,0-1.39.47,1.3,1.3,0,0,0-.4,1.07,1.2,1.2,0,0,0,.43,1,1.66,1.66,0,0,0,1.1.36,2,2,0,0,0,1.57-.67,2.37,2.37,0,0,0,.63-1.68v-.8"/>
  <polyline class="cls-1" points="303.62 70.3 302.34 70.3 302.34 58.46 303.62 58.46 303.62 70.3"/>
  <path class="cls-1" d="M312.58,62.3l-3.68,9.28c-.66,1.65-1.58,2.48-2.77,2.48a2.93,2.93,0,0,1-.84-.1V72.82A2.51,2.51,0,0,0,306,73a1.59,1.59,0,0,0,1.47-1.15l.64-1.53-3.13-8h1.43l2.16,6.16.16.61h.05c0-.12.07-.31.15-.59l2.28-6.18h1.33"/>
  <path class="cls-1" d="M317.65,70.22a2.5,2.5,0,0,1-1.21.26c-1.39,0-2.09-.79-2.09-2.36V63.39H313V62.3h1.37V60.35l1.28-.42V62.3h2v1.09h-2V67.9a1.81,1.81,0,0,0,.28,1.15,1.11,1.11,0,0,0,.91.34,1.39,1.39,0,0,0,.83-.26v1.09"/>
  <path class="cls-1" d="M320.84,59.43a.79.79,0,0,1-.25.6.81.81,0,0,1-.59.24.84.84,0,0,1-.59-.23.87.87,0,0,1,0-1.19.85.85,0,0,1,1.2,0,.78.78,0,0,1,.24.58h0m-.21,10.87h-1.29v-8h1.29v8"/>
  <path class="cls-1" d="M328.61,69.93a4.12,4.12,0,0,1-2.2.57,4,4,0,0,1-2-.5,3.58,3.58,0,0,1-1.35-1.43,4.92,4.92,0,0,1,.65-5.26,4,4,0,0,1,3-1.21,4,4,0,0,1,1.85.41v1.31a3.31,3.31,0,0,0-1.9-.62,2.59,2.59,0,0,0-2,.89,3.37,3.37,0,0,0-.77,2.29,3.17,3.17,0,0,0,.73,2.21,2.58,2.58,0,0,0,2,.81,3.24,3.24,0,0,0,2-.69v1.22"/>
  <path class="cls-1" d="M334.91,68.16a2.1,2.1,0,0,1-.8,1.69,3.28,3.28,0,0,1-2.13.65,4,4,0,0,1-2-.49V68.64a3.22,3.22,0,0,0,2.08.76c1,0,1.52-.37,1.52-1.12a1,1,0,0,0-.3-.73,5.66,5.66,0,0,0-1.35-.77,4.17,4.17,0,0,1-1.5-1,2.1,2.1,0,0,1-.44-1.39,2.06,2.06,0,0,1,.8-1.65,3.07,3.07,0,0,1,2-.67,3.84,3.84,0,0,1,1.71.38v1.29a3,3,0,0,0-1.81-.57,1.57,1.57,0,0,0-1,.31,1,1,0,0,0-.38.81,1.14,1.14,0,0,0,.29.82,4.79,4.79,0,0,0,1.23.67,4.45,4.45,0,0,1,1.6,1,2,2,0,0,1,.46,1.34"/>
  <path class="cls-1" d="M209.84,92.53a7.33,7.33,0,0,1-3.75,1,5.46,5.46,0,0,1-2.8-.72,4.74,4.74,0,0,1-1.89-2,6.38,6.38,0,0,1-.67-2.93,5.86,5.86,0,0,1,1.64-4.26,5.58,5.58,0,0,1,4.18-1.68,7.18,7.18,0,0,1,3.07.59V84a5.85,5.85,0,0,0-3.22-.87,4.22,4.22,0,0,0-2.21.59,4.06,4.06,0,0,0-1.53,1.67,5.17,5.17,0,0,0-.55,2.4,4.79,4.79,0,0,0,1.11,3.34,3.93,3.93,0,0,0,3,1.22,4.67,4.67,0,0,0,2.27-.53V88.64h-2.45V87.46h3.76v5.07"/>
  <path class="cls-1" d="M219.54,89.27a4.3,4.3,0,0,1-1.09,3.07,3.77,3.77,0,0,1-2.9,1.16,3.71,3.71,0,0,1-2.83-1.13,4.21,4.21,0,0,1-1.06-3,4.4,4.4,0,0,1,1.09-3.13,3.9,3.9,0,0,1,3-1.16,3.58,3.58,0,0,1,2.79,1.12,4.38,4.38,0,0,1,1,3h0m-1.31,0a3.53,3.53,0,0,0-.68-2.32,2.33,2.33,0,0,0-1.9-.8,2.44,2.44,0,0,0-2,.83,3.44,3.44,0,0,0-.71,2.32,3.32,3.32,0,0,0,.71,2.25,2.54,2.54,0,0,0,2,.8,2.32,2.32,0,0,0,1.91-.8,3.48,3.48,0,0,0,.67-2.28"/>
  <polyline class="cls-1" points="222.8 93.3 221.52 93.3 221.52 81.46 222.8 81.46 222.8 93.3"/>
  <path class="cls-1" d="M232.16,93.3h-1.28V91.94h0a3,3,0,0,1-2.75,1.56,3,3,0,0,1-2.42-1.09,4.44,4.44,0,0,1-.9-2.91,4.8,4.8,0,0,1,1-3.19,3.29,3.29,0,0,1,2.67-1.21,2.6,2.6,0,0,1,2.4,1.3h0V81.46h1.28V93.3h0m-1.28-3.62V88.5a2.25,2.25,0,0,0-2.27-2.3,2.19,2.19,0,0,0-1.83.86,3.64,3.64,0,0,0-.68,2.36,3.37,3.37,0,0,0,.64,2.18,2.06,2.06,0,0,0,1.72.8,2.22,2.22,0,0,0,1.74-.76,2.87,2.87,0,0,0,.68-2"/>
  <path class="cls-1" d="M247.63,87.56a6,6,0,0,1-.75,3,5.13,5.13,0,0,1-2.13,2,6.91,6.91,0,0,1-3.17.7h-3V82.1h3.09q5.92,0,5.92,5.46h0m-1.38,0q0-4.31-4.57-4.31h-1.75v8.83h1.67A4.7,4.7,0,0,0,245,90.93a4.41,4.41,0,0,0,1.22-3.34"/>
  <path class="cls-1" d="M255.33,93.3h-1.28V92.05h0a2.9,2.9,0,0,1-4.32.82,2.19,2.19,0,0,1-.69-1.69q0-2.24,2.64-2.61l2.4-.34c0-1.35-.55-2-1.65-2a4,4,0,0,0-2.61,1V85.86a4.28,4.28,0,0,1,1.2-.51,5.78,5.78,0,0,1,1.52-.25q2.82,0,2.82,3v5.2h0m-1.28-4-1.94.28a2.86,2.86,0,0,0-1.39.47,1.3,1.3,0,0,0-.4,1.07,1.2,1.2,0,0,0,.43,1,1.66,1.66,0,0,0,1.1.36,2,2,0,0,0,1.57-.67,2.37,2.37,0,0,0,.63-1.68v-.8"/>
  <path class="cls-1" d="M261.44,93.22a2.48,2.48,0,0,1-1.2.26c-1.4,0-2.1-.79-2.1-2.36V86.39h-1.37V85.3h1.37v-2l1.28-.42V85.3h2v1.09h-2V90.9a1.88,1.88,0,0,0,.28,1.15,1.11,1.11,0,0,0,.91.34,1.37,1.37,0,0,0,.83-.26v1.09"/>
  <path class="cls-1" d="M268.8,93.3h-1.28V92.05h0A2.7,2.7,0,0,1,265,93.5a2.64,2.64,0,0,1-1.85-.63,2.16,2.16,0,0,1-.7-1.69q0-2.24,2.64-2.61l2.4-.34c0-1.35-.55-2-1.65-2a4,4,0,0,0-2.61,1V85.86a4.42,4.42,0,0,1,1.2-.51A5.78,5.78,0,0,1,266,85.1q2.82,0,2.82,3v5.2h0m-1.28-4-1.94.28a2.86,2.86,0,0,0-1.39.47,1.34,1.34,0,0,0-.4,1.07,1.23,1.23,0,0,0,.43,1,1.67,1.67,0,0,0,1.1.36,2,2,0,0,0,1.57-.67,2.37,2.37,0,0,0,.63-1.68v-.8"/>
  <path class="cls-1" d="M281.94,85.44a3.37,3.37,0,0,1-1.13,2.63,4.25,4.25,0,0,1-2.94,1H276.4V93.3h-1.32V82.1h3.08a4,4,0,0,1,2.78.88,3.08,3.08,0,0,1,1,2.46h0m-1.38.07c0-1.48-.87-2.23-2.62-2.23H276.4v4.6h1.37a3.1,3.1,0,0,0,2.07-.61,2.19,2.19,0,0,0,.72-1.76"/>
  <polyline class="cls-1" points="285.15 93.3 283.87 93.3 283.87 81.46 285.15 81.46 285.15 93.3"/>
  <path class="cls-1" d="M293.41,93.3h-1.28V92.05h0a2.9,2.9,0,0,1-4.32.82,2.19,2.19,0,0,1-.69-1.69q0-2.24,2.64-2.61l2.4-.34c0-1.35-.55-2-1.65-2a4,4,0,0,0-2.61,1V85.86a4.28,4.28,0,0,1,1.2-.51,5.78,5.78,0,0,1,1.52-.25q2.82,0,2.82,3v5.2h0m-1.28-4-1.94.28a2.86,2.86,0,0,0-1.39.47,1.3,1.3,0,0,0-.4,1.07,1.2,1.2,0,0,0,.43,1,1.66,1.66,0,0,0,1.1.36,2,2,0,0,0,1.57-.67,2.37,2.37,0,0,0,.63-1.68v-.8"/>
  <path class="cls-1" d="M299.52,93.22a2.48,2.48,0,0,1-1.2.26c-1.4,0-2.1-.79-2.1-2.36V86.39h-1.37V85.3h1.37v-2l1.28-.42V85.3h2v1.09h-2V90.9a1.88,1.88,0,0,0,.28,1.15,1.11,1.11,0,0,0,.91.34,1.37,1.37,0,0,0,.83-.26v1.09"/>
  <path class="cls-1" d="M305.17,82.58a1.7,1.7,0,0,0-.85-.21c-.9,0-1.35.57-1.35,1.7V85.3h1.88v1.09H303V93.3h-1.28V86.39h-1.36V85.3h1.36V84a2.73,2.73,0,0,1,.72-2,2.43,2.43,0,0,1,1.83-.75,2.38,2.38,0,0,1,.93.15v1.15"/>
  <path class="cls-1" d="M313.47,89.27a4.34,4.34,0,0,1-1.08,3.07,3.79,3.79,0,0,1-2.9,1.16,3.74,3.74,0,0,1-2.84-1.13,4.2,4.2,0,0,1-1-3,4.36,4.36,0,0,1,1.09-3.13,3.9,3.9,0,0,1,3-1.16,3.59,3.59,0,0,1,2.79,1.12,4.38,4.38,0,0,1,1,3h0m-1.31,0a3.53,3.53,0,0,0-.67-2.32,2.35,2.35,0,0,0-1.91-.8,2.43,2.43,0,0,0-1.95.83,3.39,3.39,0,0,0-.72,2.32,3.27,3.27,0,0,0,.72,2.25,2.53,2.53,0,0,0,1.95.8,2.33,2.33,0,0,0,1.92-.8,3.48,3.48,0,0,0,.66-2.28"/>
  <path class="cls-1" d="M319.63,86.6a1.63,1.63,0,0,0-1-.26,1.6,1.6,0,0,0-1.38.8,3.75,3.75,0,0,0-.53,2.08V93.3h-1.28v-8h1.28V87h0a2.86,2.86,0,0,1,.82-1.31,1.88,1.88,0,0,1,1.27-.48,2.17,2.17,0,0,1,.77.11V86.6"/>
  <path class="cls-1" d="M332.38,93.3H331.1V88.71a3.48,3.48,0,0,0-.41-1.93,1.56,1.56,0,0,0-1.38-.58,1.71,1.71,0,0,0-1.39.75,2.86,2.86,0,0,0-.57,1.79V93.3h-1.29V88.55c0-1.57-.6-2.35-1.82-2.35a1.7,1.7,0,0,0-1.39.71,2.93,2.93,0,0,0-.54,1.83V93.3H321v-8h1.29v1.27h0a2.7,2.7,0,0,1,2.47-1.47,2.43,2.43,0,0,1,1.41.44,2.22,2.22,0,0,1,.87,1.23,2.85,2.85,0,0,1,2.65-1.67q2.64,0,2.64,3.27V93.3"/>
</svg>