<?xml version="1.0" encoding="utf-8"?>
<!-- Generator: Adobe Illustrator 23.0.2, SVG Export Plug-In . SVG Version: 6.00 Build 0)  -->
<svg version="1.1" id="Logotype_without_strapline" xmlns="http://www.w3.org/2000/svg" xmlns:xlink="http://www.w3.org/1999/xlink"
	 x="0px" y="0px" viewBox="0 0 127.6 52.7" style="enable-background:new 0 0 127.6 52.7;" xml:space="preserve">
<path d="M21.2,27.2H4.7c-0.1,6.3,3.9,9.7,9.8,9.7c4.2,0,6.4-1.4,7.2-1.4c0.6,0,0.8,0.3,0.8,1.1l-0.1,1.1c-0.1,0.6-0.3,1.1-0.9,1.4
	c-2.3,1-4.9,1.6-7.6,1.6C4.9,40.9,0,35.1,0,26.8c0-8,4.9-13.3,12.3-13.3c6.3,0,10.5,4.4,10.2,12.5C22.3,26.7,21.9,27.2,21.2,27.2z
	 M11.6,16.9c-3.3,0-6.5,2.4-6.8,6.9l12.9-0.1C17.8,19.5,15.3,16.9,11.6,16.9z M46.2,40.3c-0.8,0-1.2-0.4-1.2-1.2V26.6
	c0-1-0.1-2.3-0.1-3.2c-0.3-3.4-1.9-5.8-5.7-5.8c-2,0-4.4,0.8-6.4,3v18.5c0,0.8-0.4,1.2-1.2,1.2h-2.3c-0.8,0-1.2-0.4-1.2-1.2V15.4
	c0-0.7,0.4-1.2,1.1-1.3l2-0.2c0.8-0.1,1.2,0.3,1.3,1l0.1,2.2c2.3-2.7,5.1-3.6,8.1-3.6c4,0,6.8,1.8,8.2,5c0.9,2,1,4.7,1,7.5v13.1
	c0,0.8-0.4,1.2-1.1,1.2H46.2z M75.3,40.4c-0.7,0.1-1.2-0.3-1.3-0.9L74,37.2c-2.3,2.7-5.2,3.7-8.1,3.7c-6.1,0-11-4.4-11-13
	c0-8.6,5.2-14.2,14-14.2c1.7,0,3.4,0.2,4.9,0.7V1.4c0-0.7,0.4-1.1,1.1-1.2L77.2,0c0.8-0.1,1.3,0.3,1.3,1.1V39c0,0.7-0.4,1.1-1.1,1.2
	L75.3,40.4z M73.7,18.3c-1.8-0.7-3.6-0.9-5-0.9c-5.5,0-8.9,3.4-8.9,9.8c0,6.8,3.5,9.7,7.2,9.7c2.2,0,4.5-0.7,6.8-3.2V18.3z
	 M89.4,36.6c0,8.1-1.8,11.2-7,15.8c-0.6,0.5-1.2,0.4-1.7-0.1l-1.1-1.2c-0.5-0.5-0.5-1.1,0-1.7c4.3-4.6,5.1-6.6,5.1-13.4V15.6
	c0-0.7,0.4-1.1,1.1-1.2l2.4-0.2c0.8-0.1,1.3,0.3,1.3,1.1V36.6z M90.2,5.2c0,1.9-1.4,3.1-3.2,3.1c-2,0-3.2-1.3-3.2-3.2
	c0-1.9,1.4-3.1,3.2-3.1C88.9,2.1,90.2,3.4,90.2,5.2z M100.9,5.2c0,1.9-1.4,3.1-3.2,3.1c-2,0-3.2-1.3-3.2-3.2c0-1.9,1.4-3.1,3.2-3.1
	C99.6,2.1,100.9,3.4,100.9,5.2z M98.9,40.3c0.8,0,1.2-0.4,1.2-1.2V15.3c0-0.8-0.5-1.1-1.3-1.1l-2.4,0.2c-0.7,0.1-1.1,0.5-1.1,1.2
	v23.4c0,0.8,0.4,1.2,1.2,1.2H98.9z M124,40.3c-0.8,0-1.2-0.4-1.2-1.2V26.6c0-1-0.1-2.3-0.1-3.2c-0.3-3.4-1.9-5.8-5.7-5.8
	c-2,0-4.4,0.8-6.4,3v18.5c0,0.8-0.4,1.2-1.2,1.2H107c-0.8,0-1.2-0.4-1.2-1.2V15.4c0-0.7,0.4-1.2,1.1-1.3l2-0.2
	c0.8-0.1,1.2,0.3,1.3,1l0.1,2.2c2.3-2.7,5.1-3.6,8.1-3.6c4,0,6.8,1.8,8.2,5c0.9,2,1,4.7,1,7.5v13.1c0,0.8-0.4,1.2-1.1,1.2H124z"/>
</svg>
