<svg xmlns="http://www.w3.org/2000/svg" width="1440" height="600">
  <path d="M753,288L827,220L751,227Z" fill="#f6d754" stroke="#f6d754" stroke-width="1.51"/>
  <path d="M753,288L847,290L827,220Z" fill="#f7d85a" stroke="#f7d85a" stroke-width="1.51"/>
  <path d="M751,227L685,210L753,288Z" fill="#f6d64f" stroke="#f6d64f" stroke-width="1.51"/>
  <path d="M763,138L685,210L751,227Z" fill="#f5d449" stroke="#f5d449" stroke-width="1.51"/>
  <path d="M753,288L770,373L847,290Z" fill="#f7da63" stroke="#f7da63" stroke-width="1.51"/>
  <path d="M676,305L770,373L753,288Z" fill="#f7d95f" stroke="#f7d95f" stroke-width="1.51"/>
  <path d="M770,373L844,366L847,290Z" fill="#f7dc6a" stroke="#f7dc6a" stroke-width="1.51"/>
  <path d="M827,220L763,138L751,227Z" fill="#f6d54d" stroke="#f6d54d" stroke-width="1.51"/>
  <path d="M685,210L676,305L753,288Z" fill="#f6d752" stroke="#f6d752" stroke-width="1.51"/>
  <path d="M847,290L913,211L827,220Z" fill="#f6d85a" stroke="#f6d85a" stroke-width="1.51"/>
  <path d="M827,220L839,135L763,138Z" fill="#f5d44c" stroke="#f5d44c" stroke-width="1.51"/>
  <path d="M922,295L913,211L847,290Z" fill="#f7da61" stroke="#f7da61" stroke-width="1.51"/>
  <path d="M913,211L839,135L827,220Z" fill="#f6d653" stroke="#f6d653" stroke-width="1.51"/>
  <path d="M844,366L922,295L847,290Z" fill="#f7dc69" stroke="#f7dc69" stroke-width="1.51"/>
  <path d="M685,210L606,231L676,305Z" fill="#f6d54a" stroke="#f6d54a" stroke-width="1.51"/>
  <path d="M763,138L676,141L685,210Z" fill="#f5d242" stroke="#f5d242" stroke-width="1.51"/>
  <path d="M750,68L676,141L763,138Z" fill="#f3cf3e" stroke="#f3cf3e" stroke-width="1.51"/>
  <path d="M676,305L667,368L770,373Z" fill="#f7da62" stroke="#f7da62" stroke-width="1.51"/>
  <path d="M606,307L667,368L676,305Z" fill="#f7d859" stroke="#f7d859" stroke-width="1.51"/>
  <path d="M844,366L924,373L922,295Z" fill="#f7de70" stroke="#f7de70" stroke-width="1.51"/>
  <path d="M844,445L924,373L844,366Z" fill="#f8df78" stroke="#f8df78" stroke-width="1.51"/>
  <path d="M913,211L924,131L839,135Z" fill="#f6d552" stroke="#f6d552" stroke-width="1.51"/>
  <path d="M839,135L750,68L763,138Z" fill="#f3d043" stroke="#f3d043" stroke-width="1.51"/>
  <path d="M990,148L924,131L913,211Z" fill="#f6d657" stroke="#f6d657" stroke-width="1.51"/>
  <path d="M1005,229L913,211L922,295Z" fill="#f7da62" stroke="#f7da62" stroke-width="1.51"/>
  <path d="M614,130L606,231L685,210Z" fill="#f5d13f" stroke="#f5d13f" stroke-width="1.51"/>
  <path d="M846,53L750,68L839,135Z" fill="#ecca44" stroke="#ecca44" stroke-width="1.51"/>
  <path d="M606,231L606,307L676,305Z" fill="#f6d64f" stroke="#f6d64f" stroke-width="1.51"/>
  <path d="M770,373L844,445L844,366Z" fill="#f8de74" stroke="#f8de74" stroke-width="1.51"/>
  <path d="M761,459L844,445L770,373Z" fill="#f8df78" stroke="#f8df78" stroke-width="1.51"/>
  <path d="M924,373L989,300L922,295Z" fill="#f8de70" stroke="#f8de70" stroke-width="1.51"/>
  <path d="M686,468L761,459L770,373Z" fill="#f8df76" stroke="#f8df76" stroke-width="1.51"/>
  <path d="M914,61L846,53L839,135Z" fill="#eccb48" stroke="#eccb48" stroke-width="1.51"/>
  <path d="M989,300L1005,229L922,295Z" fill="#f7dc6a" stroke="#f7dc6a" stroke-width="1.51"/>
  <path d="M676,141L614,130L685,210Z" fill="#f5d13d" stroke="#f5d13d" stroke-width="1.51"/>
  <path d="M683,59L614,130L676,141Z" fill="#f2cd37" stroke="#f2cd37" stroke-width="1.51"/>
  <path d="M750,68L683,59L676,141Z" fill="#ecc93a" stroke="#ecc93a" stroke-width="1.51"/>
  <path d="M684,-8L683,59L750,68Z" fill="#e0bf38" stroke="#e0bf38" stroke-width="1.51"/>
  <path d="M924,131L914,61L839,135Z" fill="#f2d14d" stroke="#f2d14d" stroke-width="1.51"/>
  <path d="M1005,229L990,148L913,211Z" fill="#f7d85e" stroke="#f7d85e" stroke-width="1.51"/>
  <path d="M996,62L914,61L924,131Z" fill="#edcd51" stroke="#edcd51" stroke-width="1.51"/>
  <path d="M667,368L686,468L770,373Z" fill="#f7dd6e" stroke="#f7dd6e" stroke-width="1.51"/>
  <path d="M606,307L596,385L667,368Z" fill="#f6d95d" stroke="#f6d95d" stroke-width="1.51"/>
  <path d="M535,306L596,385L606,307Z" fill="#f6d755" stroke="#f6d755" stroke-width="1.51"/>
  <path d="M844,445L923,452L924,373Z" fill="#f8e180" stroke="#f8e180" stroke-width="1.51"/>
  <path d="M924,373L990,385L989,300Z" fill="#f8df78" stroke="#f8df78" stroke-width="1.51"/>
  <path d="M842,526L923,452L844,445Z" fill="#f9e388" stroke="#f9e388" stroke-width="1.51"/>
  <path d="M923,452L990,385L924,373Z" fill="#f8e180" stroke="#f8e180" stroke-width="1.51"/>
  <path d="M1079,305L1071,221L1005,229Z" fill="#f8dc6d" stroke="#f8dc6d" stroke-width="1.51"/>
  <path d="M599,460L686,468L667,368Z" fill="#f8dd6f" stroke="#f8dd6f" stroke-width="1.51"/>
  <path d="M761,459L842,526L844,445Z" fill="#f9e285" stroke="#f9e285" stroke-width="1.51"/>
  <path d="M606,231L535,306L606,307Z" fill="#f6d54a" stroke="#f6d54a" stroke-width="1.51"/>
  <path d="M527,214L535,306L606,231Z" fill="#f5d343" stroke="#f5d343" stroke-width="1.51"/>
  <path d="M846,53L836,-8L750,68Z" fill="#e0c042" stroke="#e0c042" stroke-width="1.51"/>
  <path d="M914,61L836,-8L846,53Z" fill="#dfc146" stroke="#dfc146" stroke-width="1.51"/>
  <path d="M530,138L527,214L606,231Z" fill="#f5d039" stroke="#f5d039" stroke-width="1.51"/>
  <path d="M530,138L606,231L614,130Z" fill="#f4cf36" stroke="#f4cf36" stroke-width="1.51"/>
  <path d="M683,59L614,54L614,130Z" fill="#eac633" stroke="#eac633" stroke-width="1.51"/>
  <path d="M684,-8L614,54L683,59Z" fill="#debd34" stroke="#debd34" stroke-width="1.51"/>
  <path d="M686,468L752,524L761,459Z" fill="#f9e180" stroke="#f9e180" stroke-width="1.51"/>
  <path d="M752,524L842,526L761,459Z" fill="#fae387" stroke="#fae387" stroke-width="1.51"/>
  <path d="M836,-8L757,-18L750,68Z" fill="#dabb3e" stroke="#dabb3e" stroke-width="1.51"/>
  <path d="M686,468L684,526L752,524Z" fill="#fae182" stroke="#fae182" stroke-width="1.51"/>
  <path d="M596,385L599,460L667,368Z" fill="#f7db67" stroke="#f7db67" stroke-width="1.51"/>
  <path d="M521,385L599,460L596,385Z" fill="#f8db65" stroke="#f8db65" stroke-width="1.51"/>
  <path d="M1005,229L1071,221L990,148Z" fill="#f7d963" stroke="#f7d963" stroke-width="1.51"/>
  <path d="M990,148L996,62L924,131Z" fill="#f5d354" stroke="#f5d354" stroke-width="1.51"/>
  <path d="M1079,305L1005,229L989,300Z" fill="#f8dd6f" stroke="#f8dd6f" stroke-width="1.51"/>
  <path d="M1064,57L996,62L990,148Z" fill="#efcf57" stroke="#efcf57" stroke-width="1.51"/>
  <path d="M914,61L928,-29L836,-8Z" fill="#d8bb47" stroke="#d8bb47" stroke-width="1.51"/>
  <path d="M757,-18L684,-8L750,68Z" fill="#d9ba39" stroke="#d9ba39" stroke-width="1.51"/>
  <path d="M523,65L530,138L614,130Z" fill="#f1cb2c" stroke="#f1cb2c" stroke-width="1.51"/>
  <path d="M599,460L684,526L686,468Z" fill="#f9df7a" stroke="#f9df7a" stroke-width="1.51"/>
  <path d="M835,613L927,532L842,526Z" fill="#fbe798" stroke="#fbe798" stroke-width="1.51"/>
  <path d="M990,385L1079,305L989,300Z" fill="#f8df78" stroke="#f8df78" stroke-width="1.51"/>
  <path d="M1065,392L1079,305L990,385Z" fill="#f8e17f" stroke="#f8e17f" stroke-width="1.51"/>
  <path d="M923,452L1002,466L990,385Z" fill="#f9e388" stroke="#f9e388" stroke-width="1.51"/>
  <path d="M927,532L1002,466L923,452Z" fill="#f9e590" stroke="#f9e590" stroke-width="1.51"/>
  <path d="M535,306L521,385L596,385Z" fill="#f6d859" stroke="#f6d859" stroke-width="1.51"/>
  <path d="M433,303L521,385L535,306Z" fill="#f6d550" stroke="#f6d550" stroke-width="1.51"/>
  <path d="M1002,466L1065,392L990,385Z" fill="#f9e388" stroke="#f9e388" stroke-width="1.51"/>
  <path d="M842,526L927,532L923,452Z" fill="#fae590" stroke="#fae590" stroke-width="1.51"/>
  <path d="M989,543L927,532L924,628Z" fill="#fbe9a0" stroke="#fbe9a0" stroke-width="1.51"/>
  <path d="M996,62L928,-29L914,61Z" fill="#dfc14e" stroke="#dfc14e" stroke-width="1.51"/>
  <path d="M836,-8L772,-90L757,-18Z" fill="#d6b83e" stroke="#d6b83e" stroke-width="1.51"/>
  <path d="M996,62L1006,-16L928,-29Z" fill="#d9bc4f" stroke="#d9bc4f" stroke-width="1.51"/>
  <path d="M1071,221L1086,136L990,148Z" fill="#f7d862" stroke="#f7d862" stroke-width="1.51"/>
  <path d="M1149,216L1086,136L1071,221Z" fill="#f8da6a" stroke="#f8da6a" stroke-width="1.51"/>
  <path d="M614,54L523,65L614,130Z" fill="#eac52d" stroke="#eac52d" stroke-width="1.51"/>
  <path d="M684,-8L613,-19L614,54Z" fill="#d7b730" stroke="#d7b730" stroke-width="1.51"/>
  <path d="M678,-83L613,-19L684,-8Z" fill="#d5b532" stroke="#d5b532" stroke-width="1.51"/>
  <path d="M678,-83L684,-8L757,-18Z" fill="#d5b637" stroke="#d5b637" stroke-width="1.51"/>
  <path d="M447,145L445,217L527,214Z" fill="#f4cf33" stroke="#f4cf33" stroke-width="1.51"/>
  <path d="M527,214L445,217L535,306Z" fill="#f5d23e" stroke="#f5d23e" stroke-width="1.51"/>
  <path d="M514,-9L523,65L614,54Z" fill="#debb29" stroke="#debb29" stroke-width="1.51"/>
  <path d="M1086,136L1064,57L990,148Z" fill="#f6d55c" stroke="#f6d55c" stroke-width="1.51"/>
  <path d="M1064,57L1006,-16L996,62Z" fill="#e0c355" stroke="#e0c355" stroke-width="1.51"/>
  <path d="M835,-97L836,-8L928,-29Z" fill="#d6b944" stroke="#d6b944" stroke-width="1.51"/>
  <path d="M835,-97L772,-90L836,-8Z" fill="#d6b840" stroke="#d6b840" stroke-width="1.51"/>
  <path d="M927,532L989,543L1002,466Z" fill="#fae798" stroke="#fae798" stroke-width="1.51"/>
  <path d="M1002,466L1087,450L1065,392Z" fill="#f9e590" stroke="#f9e590" stroke-width="1.51"/>
  <path d="M835,613L842,526L752,524Z" fill="#fbe693" stroke="#fbe693" stroke-width="1.51"/>
  <path d="M521,385L515,467L599,460Z" fill="#f8db69" stroke="#f8db69" stroke-width="1.51"/>
  <path d="M599,460L590,548L684,526Z" fill="#f9e07d" stroke="#f9e07d" stroke-width="1.51"/>
  <path d="M439,466L515,467L521,385Z" fill="#f8da67" stroke="#f8da67" stroke-width="1.51"/>
  <path d="M447,145L527,214L530,138Z" fill="#f4ce30" stroke="#f4ce30" stroke-width="1.51"/>
  <path d="M1083,536L1087,450L1002,466Z" fill="#fae79a" stroke="#fae79a" stroke-width="1.51"/>
  <path d="M1159,380L1153,307L1079,305Z" fill="#f9e181" stroke="#f9e181" stroke-width="1.51"/>
  <path d="M1079,305L1149,216L1071,221Z" fill="#f8dd70" stroke="#f8dd70" stroke-width="1.51"/>
  <path d="M757,619L835,613L752,524Z" fill="#fbe797" stroke="#fbe797" stroke-width="1.51"/>
  <path d="M525,532L590,548L599,460Z" fill="#fadf7a" stroke="#fadf7a" stroke-width="1.51"/>
  <path d="M921,-101L835,-97L928,-29Z" fill="#d6ba47" stroke="#d6ba47" stroke-width="1.51"/>
  <path d="M613,-19L514,-9L614,54Z" fill="#d7b62a" stroke="#d7b62a" stroke-width="1.51"/>
  <path d="M772,-90L678,-83L757,-18Z" fill="#d5b739" stroke="#d5b739" stroke-width="1.51"/>
  <path d="M599,-102L678,-83L772,-90Z" fill="#d5b635" stroke="#d5b635" stroke-width="1.51"/>
  <path d="M1153,307L1149,216L1079,305Z" fill="#f9df78" stroke="#f9df78" stroke-width="1.51"/>
  <path d="M1086,136L1144,50L1064,57Z" fill="#eecf5e" stroke="#eecf5e" stroke-width="1.51"/>
  <path d="M757,619L752,524L684,526Z" fill="#fbe48e" stroke="#fbe48e" stroke-width="1.51"/>
  <path d="M445,217L433,303L535,306Z" fill="#f5d242" stroke="#f5d242" stroke-width="1.51"/>
  <path d="M445,217L366,228L433,303Z" fill="#f4d039" stroke="#f4d039" stroke-width="1.51"/>
  <path d="M523,65L447,145L530,138Z" fill="#f2cb27" stroke="#f2cb27" stroke-width="1.51"/>
  <path d="M674,625L757,619L684,526Z" fill="#fbe593" stroke="#fbe593" stroke-width="1.51"/>
  <path d="M1159,380L1079,305L1065,392Z" fill="#f9e284" stroke="#f9e284" stroke-width="1.51"/>
  <path d="M1064,57L1063,-27L1006,-16Z" fill="#d9be55" stroke="#d9be55" stroke-width="1.51"/>
  <path d="M1149,216L1143,130L1086,136Z" fill="#f8da68" stroke="#f8da68" stroke-width="1.51"/>
  <path d="M1007,-104L921,-101L928,-29Z" fill="#d7bb4c" stroke="#d7bb4c" stroke-width="1.51"/>
  <path d="M515,467L525,532L599,460Z" fill="#f9de73" stroke="#f9de73" stroke-width="1.51"/>
  <path d="M433,303L433,381L521,385Z" fill="#f6d653" stroke="#f6d653" stroke-width="1.51"/>
  <path d="M590,548L674,625L684,526Z" fill="#fbe38a" stroke="#fbe38a" stroke-width="1.51"/>
  <path d="M452,536L525,532L515,467Z" fill="#f9de76" stroke="#f9de76" stroke-width="1.51"/>
  <path d="M523,65L434,61L447,145Z" fill="#ecc524" stroke="#ecc524" stroke-width="1.51"/>
  <path d="M599,-102L514,-9L613,-19Z" fill="#d5b42a" stroke="#d5b42a" stroke-width="1.51"/>
  <path d="M589,619L674,625L590,548Z" fill="#fbe48f" stroke="#fbe48f" stroke-width="1.51"/>
  <path d="M1087,450L1159,380L1065,392Z" fill="#fae48e" stroke="#fae48e" stroke-width="1.51"/>
  <path d="M1153,307L1223,225L1149,216Z" fill="#f9df77" stroke="#f9df77" stroke-width="1.51"/>
  <path d="M1006,-16L1007,-104L928,-29Z" fill="#d7bb4f" stroke="#d7bb4f" stroke-width="1.51"/>
  <path d="M1144,50L1063,-27L1064,57Z" fill="#dfc35a" stroke="#dfc35a" stroke-width="1.51"/>
  <path d="M989,543L1083,536L1002,466Z" fill="#fae89d" stroke="#fae89d" stroke-width="1.51"/>
  <path d="M1087,450L1164,465L1159,380Z" fill="#fae696" stroke="#fae696" stroke-width="1.51"/>
  <path d="M835,613L924,628L927,532Z" fill="#fbe9a1" stroke="#fbe9a1" stroke-width="1.51"/>
  <path d="M907,685L924,628L835,613Z" fill="#fbe9a2" stroke="#fbe9a2" stroke-width="1.51"/>
  <path d="M761,687L835,613L757,619Z" fill="#fce79b" stroke="#fce79b" stroke-width="1.51"/>
  <path d="M1008,610L1083,536L989,543Z" fill="#fbeaa6" stroke="#fbeaa6" stroke-width="1.51"/>
  <path d="M678,-83L599,-102L613,-19Z" fill="#d5b52f" stroke="#d5b52f" stroke-width="1.51"/>
  <path d="M835,-97L599,-102L772,-90Z" fill="#d5b739" stroke="#d5b739" stroke-width="1.51"/>
  <path d="M921,-101L599,-102L835,-97Z" fill="#d6b83e" stroke="#d6b83e" stroke-width="1.51"/>
  <path d="M514,-9L434,61L523,65Z" fill="#debb24" stroke="#debb24" stroke-width="1.51"/>
  <path d="M376,139L366,228L445,217Z" fill="#f4cd2e" stroke="#f4cd2e" stroke-width="1.51"/>
  <path d="M443,-11L434,61L514,-9Z" fill="#d8b521" stroke="#d8b521" stroke-width="1.51"/>
  <path d="M1143,130L1144,50L1086,136Z" fill="#f4d562" stroke="#f4d562" stroke-width="1.51"/>
  <path d="M1239,70L1144,50L1143,130Z" fill="#efd165" stroke="#efd165" stroke-width="1.51"/>
  <path d="M1236,143L1143,130L1149,216Z" fill="#f8db6d" stroke="#f8db6d" stroke-width="1.51"/>
  <path d="M433,381L439,466L521,385Z" fill="#f7d960" stroke="#f7d960" stroke-width="1.51"/>
  <path d="M924,628L1008,610L989,543Z" fill="#fceaa8" stroke="#fceaa8" stroke-width="1.51"/>
  <path d="M510,617L589,619L590,548Z" fill="#fce38a" stroke="#fce38a" stroke-width="1.51"/>
  <path d="M510,617L590,548L525,532Z" fill="#fbe184" stroke="#fbe184" stroke-width="1.51"/>
  <path d="M921,-101L510,-108L599,-102Z" fill="#d5b634" stroke="#d5b634" stroke-width="1.51"/>
  <path d="M1063,-27L1007,-104L1006,-16Z" fill="#d8bc53" stroke="#d8bc53" stroke-width="1.51"/>
  <path d="M1070,-95L1007,-104L1063,-27Z" fill="#d8bd55" stroke="#d8bd55" stroke-width="1.51"/>
  <path d="M1231,292L1223,225L1153,307Z" fill="#fae07e" stroke="#fae07e" stroke-width="1.51"/>
  <path d="M1083,536L1164,465L1087,450Z" fill="#fae89d" stroke="#fae89d" stroke-width="1.51"/>
  <path d="M1161,531L1164,465L1083,536Z" fill="#fbeaa5" stroke="#fbeaa5" stroke-width="1.51"/>
  <path d="M376,139L445,217L447,145Z" fill="#f4cc2b" stroke="#f4cc2b" stroke-width="1.51"/>
  <path d="M433,303L354,376L433,381Z" fill="#f5d550" stroke="#f5d550" stroke-width="1.51"/>
  <path d="M433,381L357,445L439,466Z" fill="#f7d861" stroke="#f7d861" stroke-width="1.51"/>
  <path d="M366,228L365,292L433,303Z" fill="#f5d13e" stroke="#f5d13e" stroke-width="1.51"/>
  <path d="M674,625L761,687L757,619Z" fill="#fbe697" stroke="#fbe697" stroke-width="1.51"/>
  <path d="M924,628L998,697L1008,610Z" fill="#fceba9" stroke="#fceba9" stroke-width="1.51"/>
  <path d="M683,705L761,687L674,625Z" fill="#fbe695" stroke="#fbe695" stroke-width="1.51"/>
  <path d="M1231,292L1153,307L1159,380Z" fill="#f9e285" stroke="#f9e285" stroke-width="1.51"/>
  <path d="M434,61L376,139L447,145Z" fill="#f1c921" stroke="#f1c921" stroke-width="1.51"/>
  <path d="M434,61L377,72L376,139Z" fill="#ebc41d" stroke="#ebc41d" stroke-width="1.51"/>
  <path d="M456,-98L443,-11L514,-9Z" fill="#d4b221" stroke="#d4b221" stroke-width="1.51"/>
  <path d="M439,466L452,536L515,467Z" fill="#f9dc70" stroke="#f9dc70" stroke-width="1.51"/>
  <path d="M358,527L452,536L439,466Z" fill="#f9dc72" stroke="#f9dc72" stroke-width="1.51"/>
  <path d="M1244,377L1231,292L1159,380Z" fill="#fae48c" stroke="#fae48c" stroke-width="1.51"/>
  <path d="M842,702L907,685L835,613Z" fill="#fbe9a0" stroke="#fbe9a0" stroke-width="1.51"/>
  <path d="M1162,-24L1070,-95L1063,-27Z" fill="#d9be59" stroke="#d9be59" stroke-width="1.51"/>
  <path d="M761,687L842,702L835,613Z" fill="#fbe89d" stroke="#fbe89d" stroke-width="1.51"/>
  <path d="M360,-5L377,72L434,61Z" fill="#deb91b" stroke="#deb91b" stroke-width="1.51"/>
  <path d="M288,151L286,211L366,228Z" fill="#f3cc28" stroke="#f3cc28" stroke-width="1.51"/>
  <path d="M365,292L354,376L433,303Z" fill="#f5d348" stroke="#f5d348" stroke-width="1.51"/>
  <path d="M275,302L354,376L365,292Z" fill="#f5d245" stroke="#f5d245" stroke-width="1.51"/>
  <path d="M286,211L365,292L366,228Z" fill="#f4ce33" stroke="#f4ce33" stroke-width="1.51"/>
  <path d="M1008,610L1075,612L1083,536Z" fill="#fbecad" stroke="#fbecad" stroke-width="1.51"/>
  <path d="M1064,702L1075,612L1008,610Z" fill="#fbecaf" stroke="#fbecaf" stroke-width="1.51"/>
  <path d="M611,688L683,705L674,625Z" fill="#fce592" stroke="#fce592" stroke-width="1.51"/>
  <path d="M452,536L510,617L525,532Z" fill="#fbe081" stroke="#fbe081" stroke-width="1.51"/>
  <path d="M1223,225L1236,143L1149,216Z" fill="#f9dd73" stroke="#f9dd73" stroke-width="1.51"/>
  <path d="M1144,50L1162,-24L1063,-27Z" fill="#d9be5b" stroke="#d9be5b" stroke-width="1.51"/>
  <path d="M1310,211L1236,143L1223,225Z" fill="#fade77" stroke="#fade77" stroke-width="1.51"/>
  <path d="M1226,449L1244,377L1159,380Z" fill="#fae695" stroke="#fae695" stroke-width="1.51"/>
  <path d="M1150,618L1161,531L1083,536Z" fill="#fbecaf" stroke="#fbecaf" stroke-width="1.51"/>
  <path d="M599,-102L510,-108L514,-9Z" fill="#d5b427" stroke="#d5b427" stroke-width="1.51"/>
  <path d="M443,-11L360,-5L434,61Z" fill="#d7b41d" stroke="#d7b41d" stroke-width="1.51"/>
  <path d="M1007,-104L510,-108L921,-101Z" fill="#d6b840" stroke="#d6b840" stroke-width="1.51"/>
  <path d="M761,687L683,705L842,702Z" fill="#fce799" stroke="#fce799" stroke-width="1.51"/>
  <path d="M611,688L674,625L589,619Z" fill="#fbe48f" stroke="#fbe48f" stroke-width="1.51"/>
  <path d="M1244,-4L1162,-24L1144,50Z" fill="#dbc161" stroke="#dbc161" stroke-width="1.51"/>
  <path d="M1231,292L1306,297L1223,225Z" fill="#fae182" stroke="#fae182" stroke-width="1.51"/>
  <path d="M1226,449L1159,380L1164,465Z" fill="#fae799" stroke="#fae799" stroke-width="1.51"/>
  <path d="M510,690L611,688L589,619Z" fill="#fce38c" stroke="#fce38c" stroke-width="1.51"/>
  <path d="M452,536L433,623L510,617Z" fill="#fce185" stroke="#fce185" stroke-width="1.51"/>
  <path d="M354,376L357,445L433,381Z" fill="#f6d759" stroke="#f6d759" stroke-width="1.51"/>
  <path d="M1225,548L1226,449L1164,465Z" fill="#fbeaa6" stroke="#fbeaa6" stroke-width="1.51"/>
  <path d="M1305,67L1239,70L1236,143Z" fill="#f2d56d" stroke="#f2d56d" stroke-width="1.51"/>
  <path d="M1236,143L1239,70L1143,130Z" fill="#f7d86a" stroke="#f7d86a" stroke-width="1.51"/>
  <path d="M1075,612L1150,618L1083,536Z" fill="#fcedb2" stroke="#fcedb2" stroke-width="1.51"/>
  <path d="M907,685L998,697L924,628Z" fill="#fbeaa7" stroke="#fbeaa7" stroke-width="1.51"/>
  <path d="M842,702L998,697L907,685Z" fill="#fbeaa5" stroke="#fbeaa5" stroke-width="1.51"/>
  <path d="M510,-108L456,-98L514,-9Z" fill="#d4b323" stroke="#d4b323" stroke-width="1.51"/>
  <path d="M288,151L366,228L376,139Z" fill="#f3cb25" stroke="#f3cb25" stroke-width="1.51"/>
  <path d="M373,-91L360,-5L443,-11Z" fill="#d4b11b" stroke="#d4b11b" stroke-width="1.51"/>
  <path d="M288,151L376,139L377,72Z" fill="#f3c919" stroke="#f3c919" stroke-width="1.51"/>
  <path d="M354,376L297,448L357,445Z" fill="#f7d75c" stroke="#f7d75c" stroke-width="1.51"/>
  <path d="M1064,702L1150,618L1075,612Z" fill="#fcedb3" stroke="#fcedb3" stroke-width="1.51"/>
  <path d="M1161,531L1225,548L1164,465Z" fill="#fbebaa" stroke="#fbebaa" stroke-width="1.51"/>
  <path d="M357,445L358,527L439,466Z" fill="#f8da6a" stroke="#f8da6a" stroke-width="1.51"/>
  <path d="M510,617L510,690L589,619Z" fill="#fce28a" stroke="#fce28a" stroke-width="1.51"/>
  <path d="M297,448L358,527L357,445Z" fill="#f8d966" stroke="#f8d966" stroke-width="1.51"/>
  <path d="M354,605L433,623L452,536Z" fill="#fbe082" stroke="#fbe082" stroke-width="1.51"/>
  <path d="M287,59L288,151L377,72Z" fill="#ebc315" stroke="#ebc315" stroke-width="1.51"/>
  <path d="M1244,377L1306,297L1231,292Z" fill="#fae38b" stroke="#fae38b" stroke-width="1.51"/>
  <path d="M1320,374L1306,297L1244,377Z" fill="#fae592" stroke="#fae592" stroke-width="1.51"/>
  <path d="M1320,374L1244,377L1318,457Z" fill="#fae89c" stroke="#fae89c" stroke-width="1.51"/>
  <path d="M433,623L510,690L510,617Z" fill="#fce188" stroke="#fce188" stroke-width="1.51"/>
  <path d="M611,688L510,690L683,705Z" fill="#fce48e" stroke="#fce48e" stroke-width="1.51"/>
  <path d="M219,306L275,302L201,229Z" fill="#eeca37" stroke="#eeca37" stroke-width="1.51"/>
  <path d="M286,211L275,302L365,292Z" fill="#f4cf37" stroke="#f4cf37" stroke-width="1.51"/>
  <path d="M1306,297L1310,211L1223,225Z" fill="#fae07f" stroke="#fae07f" stroke-width="1.51"/>
  <path d="M1231,-96L1165,-107L1162,-24Z" fill="#d9bf61" stroke="#d9bf61" stroke-width="1.51"/>
  <path d="M1162,-24L1165,-107L1070,-95Z" fill="#d9be5c" stroke="#d9be5c" stroke-width="1.51"/>
  <path d="M1070,-95L1165,-107L1007,-104Z" fill="#d8bd58" stroke="#d8bd58" stroke-width="1.51"/>
  <path d="M1007,-104L1165,-107L510,-108Z" fill="#d6ba47" stroke="#d6ba47" stroke-width="1.51"/>
  <path d="M1244,-4L1144,50L1239,70Z" fill="#e3c865" stroke="#e3c865" stroke-width="1.51"/>
  <path d="M1305,67L1244,-4L1239,70Z" fill="#e5ca6a" stroke="#e5ca6a" stroke-width="1.51"/>
  <path d="M1225,604L1225,548L1161,531Z" fill="#fcedb4" stroke="#fcedb4" stroke-width="1.51"/>
  <path d="M1150,618L1225,604L1161,531Z" fill="#fbeeb7" stroke="#fbeeb7" stroke-width="1.51"/>
  <path d="M998,697L1064,702L1008,610Z" fill="#fbecad" stroke="#fbecad" stroke-width="1.51"/>
  <path d="M842,702L1064,702L998,697Z" fill="#fbeba9" stroke="#fbeba9" stroke-width="1.51"/>
  <path d="M1167,706L1064,702L842,702Z" fill="#fbecad" stroke="#fbecad" stroke-width="1.51"/>
  <path d="M275,302L278,380L354,376Z" fill="#f5d349" stroke="#f5d349" stroke-width="1.51"/>
  <path d="M278,380L297,448L354,376Z" fill="#f6d555" stroke="#f6d555" stroke-width="1.51"/>
  <path d="M1310,211L1314,154L1236,143Z" fill="#fadd77" stroke="#fadd77" stroke-width="1.51"/>
  <path d="M1382,223L1314,154L1310,211Z" fill="#fbdf7e" stroke="#fbdf7e" stroke-width="1.51"/>
  <path d="M1306,297L1382,223L1310,211Z" fill="#fbe184" stroke="#fbe184" stroke-width="1.51"/>
  <path d="M1318,457L1244,377L1226,449Z" fill="#fae89f" stroke="#fae89f" stroke-width="1.51"/>
  <path d="M360,-5L287,59L377,72Z" fill="#deb816" stroke="#deb816" stroke-width="1.51"/>
  <path d="M201,229L275,302L286,211Z" fill="#f0cb2f" stroke="#f0cb2f" stroke-width="1.51"/>
  <path d="M279,-6L287,59L360,-5Z" fill="#d7b312" stroke="#d7b312" stroke-width="1.51"/>
  <path d="M276,-102L373,-91L456,-98Z" fill="#d4b018" stroke="#d4b018" stroke-width="1.51"/>
  <path d="M456,-98L373,-91L443,-11Z" fill="#d4b11e" stroke="#d4b11e" stroke-width="1.51"/>
  <path d="M1244,-4L1231,-96L1162,-24Z" fill="#dabf63" stroke="#dabf63" stroke-width="1.51"/>
  <path d="M1314,154L1305,67L1236,143Z" fill="#fadb71" stroke="#fadb71" stroke-width="1.51"/>
  <path d="M1307,526L1318,457L1226,449Z" fill="#fbebab" stroke="#fbebab" stroke-width="1.51"/>
  <path d="M1238,689L1225,604L1150,618Z" fill="#fcefbc" stroke="#fcefbc" stroke-width="1.51"/>
  <path d="M297,542L354,605L358,527Z" fill="#fbdd78" stroke="#fbdd78" stroke-width="1.51"/>
  <path d="M358,527L354,605L452,536Z" fill="#fbde7a" stroke="#fbde7a" stroke-width="1.51"/>
  <path d="M433,623L436,705L510,690Z" fill="#fce187" stroke="#fce187" stroke-width="1.51"/>
  <path d="M1304,-17L1231,-96L1244,-4Z" fill="#dac067" stroke="#dac067" stroke-width="1.51"/>
  <path d="M1307,526L1226,449L1225,548Z" fill="#fbecae" stroke="#fbecae" stroke-width="1.51"/>
  <path d="M297,448L297,542L358,527Z" fill="#f9da6c" stroke="#f9da6c" stroke-width="1.51"/>
  <path d="M197,451L297,542L297,448Z" fill="#f6d665" stroke="#f6d665" stroke-width="1.51"/>
  <path d="M366,692L433,623L354,605Z" fill="#fce083" stroke="#fce083" stroke-width="1.51"/>
  <path d="M366,692L436,705L433,623Z" fill="#fbe084" stroke="#fbe084" stroke-width="1.51"/>
  <path d="M510,690L436,705L683,705Z" fill="#fce38a" stroke="#fce38a" stroke-width="1.51"/>
  <path d="M278,380L197,451L297,448Z" fill="#f3d359" stroke="#f3d359" stroke-width="1.51"/>
  <path d="M275,302L219,306L278,380Z" fill="#f1cf43" stroke="#f1cf43" stroke-width="1.51"/>
  <path d="M201,229L286,211L201,138Z" fill="#edc624" stroke="#edc624" stroke-width="1.51"/>
  <path d="M201,138L286,211L288,151Z" fill="#f0c71f" stroke="#f0c71f" stroke-width="1.51"/>
  <path d="M373,-91L279,-6L360,-5Z" fill="#d4b015" stroke="#d4b015" stroke-width="1.51"/>
  <path d="M1305,67L1304,-17L1244,-4Z" fill="#dec46a" stroke="#dec46a" stroke-width="1.51"/>
  <path d="M1388,-4L1304,-17L1305,67Z" fill="#dfc56e" stroke="#dfc56e" stroke-width="1.51"/>
  <path d="M1305,613L1307,526L1225,548Z" fill="#fcefbb" stroke="#fcefbb" stroke-width="1.51"/>
  <path d="M1064,702L1167,706L1150,618Z" fill="#fceeb6" stroke="#fceeb6" stroke-width="1.51"/>
  <path d="M1225,604L1305,613L1225,548Z" fill="#fcf0bd" stroke="#fcf0bd" stroke-width="1.51"/>
  <path d="M683,705L1167,706L842,702Z" fill="#fbe9a3" stroke="#fbe9a3" stroke-width="1.51"/>
  <path d="M436,705L1167,706L683,705Z" fill="#fce799" stroke="#fce799" stroke-width="1.51"/>
  <path d="M1314,154L1396,138L1305,67Z" fill="#fbdc76" stroke="#fbdc76" stroke-width="1.51"/>
  <path d="M1381,306L1382,223L1306,297Z" fill="#fbe38b" stroke="#fbe38b" stroke-width="1.51"/>
  <path d="M1381,306L1306,297L1320,374Z" fill="#fbe592" stroke="#fbe592" stroke-width="1.51"/>
  <path d="M1381,306L1320,374L1382,389Z" fill="#fbe799" stroke="#fbe799" stroke-width="1.51"/>
  <path d="M1382,389L1320,374L1318,457Z" fill="#fbe9a1" stroke="#fbe9a1" stroke-width="1.51"/>
  <path d="M201,138L288,151L287,59Z" fill="#eec411" stroke="#eec411" stroke-width="1.51"/>
  <path d="M201,50L201,138L287,59Z" fill="#e2bb10" stroke="#e2bb10" stroke-width="1.51"/>
  <path d="M1462,149L1396,138L1382,223Z" fill="#fbe082" stroke="#fbe082" stroke-width="1.51"/>
  <path d="M1399,465L1382,389L1318,457Z" fill="#fbeba9" stroke="#fbeba9" stroke-width="1.51"/>
  <path d="M219,306L200,386L278,380Z" fill="#efce49" stroke="#efce49" stroke-width="1.51"/>
  <path d="M127,303L200,386L219,306Z" fill="#e9c842" stroke="#e9c842" stroke-width="1.51"/>
  <path d="M197,451L200,386L137,461Z" fill="#ebcd58" stroke="#ebcd58" stroke-width="1.51"/>
  <path d="M296,627L354,605L297,542Z" fill="#fbdd7e" stroke="#fbdd7e" stroke-width="1.51"/>
  <path d="M296,627L366,692L354,605Z" fill="#fcde81" stroke="#fcde81" stroke-width="1.51"/>
  <path d="M1382,223L1396,138L1314,154Z" fill="#fbdf7e" stroke="#fbdf7e" stroke-width="1.51"/>
  <path d="M1465,296L1382,223L1381,306Z" fill="#fbe48f" stroke="#fbe48f" stroke-width="1.51"/>
  <path d="M213,615L296,627L297,542Z" fill="#f9dc7d" stroke="#f9dc7d" stroke-width="1.51"/>
  <path d="M1307,526L1399,465L1318,457Z" fill="#fbecb0" stroke="#fbecb0" stroke-width="1.51"/>
  <path d="M1167,706L1238,689L1150,618Z" fill="#fbefba" stroke="#fbefba" stroke-width="1.51"/>
  <path d="M1304,-17L1309,-93L1231,-96Z" fill="#dac169" stroke="#dac169" stroke-width="1.51"/>
  <path d="M1231,-96L1309,-93L1165,-107Z" fill="#dac065" stroke="#dac065" stroke-width="1.51"/>
  <path d="M1391,-85L1309,-93L1304,-17Z" fill="#dbc26d" stroke="#dbc26d" stroke-width="1.51"/>
  <path d="M1238,689L1305,613L1225,604Z" fill="#fcf0c0" stroke="#fcf0c0" stroke-width="1.51"/>
  <path d="M218,-5L201,50L287,59Z" fill="#d6b10f" stroke="#d6b10f" stroke-width="1.51"/>
  <path d="M127,303L219,306L201,229Z" fill="#e9c637" stroke="#e9c637" stroke-width="1.51"/>
  <path d="M218,-5L287,59L279,-6Z" fill="#d4b010" stroke="#d4b010" stroke-width="1.51"/>
  <path d="M200,386L197,451L278,380Z" fill="#f0cf54" stroke="#f0cf54" stroke-width="1.51"/>
  <path d="M135,228L201,229L201,138Z" fill="#e7c224" stroke="#e7c224" stroke-width="1.51"/>
  <path d="M510,-108L276,-102L456,-98Z" fill="#d4b11d" stroke="#d4b11d" stroke-width="1.51"/>
  <path d="M373,-91L276,-102L279,-6Z" fill="#d3af12" stroke="#d3af12" stroke-width="1.51"/>
  <path d="M276,-102L218,-5L279,-6Z" fill="#d0ac0f" stroke="#d0ac0f" stroke-width="1.51"/>
  <path d="M1400,545L1399,465L1307,526Z" fill="#fceeb8" stroke="#fceeb8" stroke-width="1.51"/>
  <path d="M1382,389L1465,296L1381,306Z" fill="#fbe799" stroke="#fbe799" stroke-width="1.51"/>
  <path d="M1396,138L1404,54L1305,67Z" fill="#f2d576" stroke="#f2d576" stroke-width="1.51"/>
  <path d="M1462,73L1404,54L1396,138Z" fill="#f3d67b" stroke="#f3d67b" stroke-width="1.51"/>
  <path d="M1404,54L1388,-4L1305,67Z" fill="#e5cb73" stroke="#e5cb73" stroke-width="1.51"/>
  <path d="M137,130L201,138L201,50Z" fill="#e3bb11" stroke="#e3bb11" stroke-width="1.51"/>
  <path d="M137,130L135,228L201,138Z" fill="#e4be1d" stroke="#e4be1d" stroke-width="1.51"/>
  <path d="M296,627L274,684L366,692Z" fill="#fbde80" stroke="#fbde80" stroke-width="1.51"/>
  <path d="M197,451L196,549L297,542Z" fill="#f3d56b" stroke="#f3d56b" stroke-width="1.51"/>
  <path d="M137,461L196,549L197,451Z" fill="#eccf64" stroke="#eccf64" stroke-width="1.51"/>
  <path d="M135,228L127,303L201,229Z" fill="#e5c22f" stroke="#e5c22f" stroke-width="1.51"/>
  <path d="M135,228L40,291L127,303Z" fill="#e0be34" stroke="#e0be34" stroke-width="1.51"/>
  <path d="M126,74L137,130L201,50Z" fill="#dab50f" stroke="#dab50f" stroke-width="1.51"/>
  <path d="M126,74L201,50L139,-23Z" fill="#cdaa0f" stroke="#cdaa0f" stroke-width="1.51"/>
  <path d="M213,615L274,684L296,627Z" fill="#f8db7e" stroke="#f8db7e" stroke-width="1.51"/>
  <path d="M366,692L203,697L436,705Z" fill="#fcde81" stroke="#fcde81" stroke-width="1.51"/>
  <path d="M1483,386L1465,296L1382,389Z" fill="#fbe9a0" stroke="#fbe9a0" stroke-width="1.51"/>
  <path d="M1305,613L1400,545L1307,526Z" fill="#fcf0bf" stroke="#fcf0bf" stroke-width="1.51"/>
  <path d="M1399,608L1400,545L1305,613Z" fill="#fcf2c7" stroke="#fcf2c7" stroke-width="1.51"/>
  <path d="M1463,463L1382,389L1399,465Z" fill="#fbecae" stroke="#fbecae" stroke-width="1.51"/>
  <path d="M1475,-25L1391,-85L1388,-4Z" fill="#dcc374" stroke="#dcc374" stroke-width="1.51"/>
  <path d="M1478,218L1462,149L1382,223Z" fill="#fce187" stroke="#fce187" stroke-width="1.51"/>
  <path d="M196,549L213,615L297,542Z" fill="#f5d777" stroke="#f5d777" stroke-width="1.51"/>
  <path d="M137,628L213,615L196,549Z" fill="#f0d47b" stroke="#f0d47b" stroke-width="1.51"/>
  <path d="M127,303L117,368L200,386Z" fill="#e6c646" stroke="#e6c646" stroke-width="1.51"/>
  <path d="M55,389L117,368L40,291Z" fill="#debf43" stroke="#debf43" stroke-width="1.51"/>
  <path d="M117,368L137,461L200,386Z" fill="#e7c952" stroke="#e7c952" stroke-width="1.51"/>
  <path d="M1167,706L1312,705L1238,689Z" fill="#fcf0bf" stroke="#fcf0bf" stroke-width="1.51"/>
  <path d="M1238,689L1312,705L1305,613Z" fill="#fcf1c3" stroke="#fcf1c3" stroke-width="1.51"/>
  <path d="M1465,296L1478,218L1382,223Z" fill="#fce48d" stroke="#fce48d" stroke-width="1.51"/>
  <path d="M1388,-4L1391,-85L1304,-17Z" fill="#dbc26f" stroke="#dbc26f" stroke-width="1.51"/>
  <path d="M1475,-25L1388,-4L1404,54Z" fill="#dec575" stroke="#dec575" stroke-width="1.51"/>
  <path d="M137,130L55,213L135,228Z" fill="#e0bb22" stroke="#e0bb22" stroke-width="1.51"/>
  <path d="M139,-23L201,50L218,-5Z" fill="#caa70f" stroke="#caa70f" stroke-width="1.51"/>
  <path d="M276,-102L200,-104L218,-5Z" fill="#cdaa0f" stroke="#cdaa0f" stroke-width="1.51"/>
  <path d="M510,-108L200,-104L276,-102Z" fill="#d3b014" stroke="#d3b014" stroke-width="1.51"/>
  <path d="M1462,149L1462,73L1396,138Z" fill="#fbdd7e" stroke="#fbdd7e" stroke-width="1.51"/>
  <path d="M1549,141L1462,73L1462,149Z" fill="#fbdd7f" stroke="#fbdd7f" stroke-width="1.51"/>
  <path d="M1381,682L1399,608L1305,613Z" fill="#fcf2c9" stroke="#fcf2c9" stroke-width="1.51"/>
  <path d="M1460,527L1463,463L1399,465Z" fill="#fbeeb9" stroke="#fbeeb9" stroke-width="1.51"/>
  <path d="M1559,222L1549,141L1478,218Z" fill="#fce187" stroke="#fce187" stroke-width="1.51"/>
  <path d="M1460,527L1399,465L1400,545Z" fill="#fcefbd" stroke="#fcefbd" stroke-width="1.51"/>
  <path d="M1463,463L1483,386L1382,389Z" fill="#fcebaa" stroke="#fcebaa" stroke-width="1.51"/>
  <path d="M200,-104L139,-23L218,-5Z" fill="#c8a60f" stroke="#c8a60f" stroke-width="1.51"/>
  <path d="M1399,608L1460,527L1400,545Z" fill="#fcf1c6" stroke="#fcf1c6" stroke-width="1.51"/>
  <path d="M1556,390L1559,302L1483,386Z" fill="#fbe9a0" stroke="#fbe9a0" stroke-width="1.51"/>
  <path d="M1399,608L1481,628L1460,527Z" fill="#fcf3cd" stroke="#fcf3cd" stroke-width="1.51"/>
  <path d="M1312,705L1381,682L1305,613Z" fill="#fcf2c7" stroke="#fcf2c7" stroke-width="1.51"/>
  <path d="M213,615L203,697L274,684Z" fill="#f5d87d" stroke="#f5d87d" stroke-width="1.51"/>
  <path d="M137,461L121,542L196,549Z" fill="#eacd6a" stroke="#eacd6a" stroke-width="1.51"/>
  <path d="M48,525L121,542L137,461Z" fill="#e5c967" stroke="#e5c967" stroke-width="1.51"/>
  <path d="M137,628L203,697L213,615Z" fill="#f0d47c" stroke="#f0d47c" stroke-width="1.51"/>
  <path d="M274,684L203,697L366,692Z" fill="#fadd7e" stroke="#fadd7e" stroke-width="1.51"/>
  <path d="M39,131L55,213L137,130Z" fill="#dcb71a" stroke="#dcb71a" stroke-width="1.51"/>
  <path d="M117,368L55,389L137,461Z" fill="#e2c551" stroke="#e2c551" stroke-width="1.51"/>
  <path d="M39,131L137,130L126,74Z" fill="#dcb510" stroke="#dcb510" stroke-width="1.51"/>
  <path d="M1549,141L1462,149L1478,218Z" fill="#fbe084" stroke="#fbe084" stroke-width="1.51"/>
  <path d="M1546,-13L1475,-25L1462,73Z" fill="#dfc677" stroke="#dfc677" stroke-width="1.51"/>
  <path d="M1462,73L1475,-25L1404,54Z" fill="#e5cb78" stroke="#e5cb78" stroke-width="1.51"/>
  <path d="M40,57L39,131L126,74Z" fill="#d2ae0f" stroke="#d2ae0f" stroke-width="1.51"/>
  <path d="M200,-104L133,-90L139,-23Z" fill="#c5a30e" stroke="#c5a30e" stroke-width="1.51"/>
  <path d="M40,291L117,368L127,303Z" fill="#e0c03e" stroke="#e0c03e" stroke-width="1.51"/>
  <path d="M55,213L40,291L135,228Z" fill="#ddbb2c" stroke="#ddbb2c" stroke-width="1.51"/>
  <path d="M121,542L137,628L196,549Z" fill="#ecd075" stroke="#ecd075" stroke-width="1.51"/>
  <path d="M57,621L137,628L121,542Z" fill="#e7cd79" stroke="#e7cd79" stroke-width="1.51"/>
  <path d="M-30,296L-19,374L40,291Z" fill="#d6b73c" stroke="#d6b73c" stroke-width="1.51"/>
  <path d="M40,57L126,74L49,-14Z" fill="#c6a40e" stroke="#c6a40e" stroke-width="1.51"/>
  <path d="M1559,222L1478,218L1559,302Z" fill="#fce48d" stroke="#fce48d" stroke-width="1.51"/>
  <path d="M1478,218L1465,296L1559,302Z" fill="#fce592" stroke="#fce592" stroke-width="1.51"/>
  <path d="M1559,302L1465,296L1483,386Z" fill="#fce79b" stroke="#fce79b" stroke-width="1.51"/>
  <path d="M1556,390L1483,386L1562,469Z" fill="#fcebab" stroke="#fcebab" stroke-width="1.51"/>
  <path d="M55,389L49,455L137,461Z" fill="#e1c456" stroke="#e1c456" stroke-width="1.51"/>
  <path d="M-33,448L49,455L55,389Z" fill="#dabe55" stroke="#dabe55" stroke-width="1.51"/>
  <path d="M1562,469L1463,463L1546,532Z" fill="#fbefb9" stroke="#fbefb9" stroke-width="1.51"/>
  <path d="M1562,469L1483,386L1463,463Z" fill="#fbecb0" stroke="#fbecb0" stroke-width="1.51"/>
  <path d="M1475,-25L1479,-107L1391,-85Z" fill="#dcc476" stroke="#dcc476" stroke-width="1.51"/>
  <path d="M1391,-85L1479,-107L1309,-93Z" fill="#dbc372" stroke="#dbc372" stroke-width="1.51"/>
  <path d="M1309,-93L1479,-107L1165,-107Z" fill="#dbc16c" stroke="#dbc16c" stroke-width="1.51"/>
  <path d="M1165,-107L1479,-107L510,-108Z" fill="#d8bd56" stroke="#d8bd56" stroke-width="1.51"/>
  <path d="M1539,-89L1479,-107L1475,-25Z" fill="#dcc476" stroke="#dcc476" stroke-width="1.51"/>
  <path d="M49,-14L126,74L139,-23Z" fill="#c3a10e" stroke="#c3a10e" stroke-width="1.51"/>
  <path d="M1381,682L1481,628L1399,608Z" fill="#fcf3cd" stroke="#fcf3cd" stroke-width="1.51"/>
  <path d="M1549,141L1555,73L1462,73Z" fill="#f5d87d" stroke="#f5d87d" stroke-width="1.51"/>
  <path d="M1559,222L1555,73L1549,141Z" fill="#fcdf81" stroke="#fcdf81" stroke-width="1.51"/>
  <path d="M133,-90L49,-14L139,-23Z" fill="#c09f0e" stroke="#c09f0e" stroke-width="1.51"/>
  <path d="M-33,448L48,525L49,455Z" fill="#dbc15d" stroke="#dbc15d" stroke-width="1.51"/>
  <path d="M49,455L48,525L137,461Z" fill="#e1c560" stroke="#e1c560" stroke-width="1.51"/>
  <path d="M55,703L134,703L137,628Z" fill="#e8ce79" stroke="#e8ce79" stroke-width="1.51"/>
  <path d="M137,628L134,703L203,697Z" fill="#edd27b" stroke="#edd27b" stroke-width="1.51"/>
  <path d="M203,697L134,703L436,705Z" fill="#f8db7e" stroke="#f8db7e" stroke-width="1.51"/>
  <path d="M1556,390L1562,469L1559,302Z" fill="#fbeaa5" stroke="#fbeaa5" stroke-width="1.51"/>
  <path d="M1559,302L1562,469L1559,222Z" fill="#fbe79b" stroke="#fbe79b" stroke-width="1.51"/>
  <path d="M1546,532L1463,463L1460,527Z" fill="#fcefbd" stroke="#fcefbd" stroke-width="1.51"/>
  <path d="M1555,73L1546,-13L1462,73Z" fill="#e7cd79" stroke="#e7cd79" stroke-width="1.51"/>
  <path d="M1539,605L1546,532L1460,527Z" fill="#fcf2c6" stroke="#fcf2c6" stroke-width="1.51"/>
  <path d="M1481,628L1539,605L1460,527Z" fill="#fcf3cd" stroke="#fcf3cd" stroke-width="1.51"/>
  <path d="M1381,682L1479,701L1481,628Z" fill="#fcf4cf" stroke="#fcf4cf" stroke-width="1.51"/>
  <path d="M1312,705L1479,701L1381,682Z" fill="#fcf3cb" stroke="#fcf3cb" stroke-width="1.51"/>
  <path d="M40,291L-19,374L55,389Z" fill="#d9bb43" stroke="#d9bb43" stroke-width="1.51"/>
  <path d="M-30,296L40,291L-33,208Z" fill="#d5b530" stroke="#d5b530" stroke-width="1.51"/>
  <path d="M40,291L55,213L-33,208Z" fill="#d7b629" stroke="#d7b629" stroke-width="1.51"/>
  <path d="M55,213L39,131L-33,208Z" fill="#d6b31f" stroke="#d6b31f" stroke-width="1.51"/>
  <path d="M48,525L57,621L121,542Z" fill="#e3c971" stroke="#e3c971" stroke-width="1.51"/>
  <path d="M-26,542L57,621L48,525Z" fill="#dec46f" stroke="#dec46f" stroke-width="1.51"/>
  <path d="M-30,71L39,131L40,57Z" fill="#cca90f" stroke="#cca90f" stroke-width="1.51"/>
  <path d="M133,-90L52,-102L49,-14Z" fill="#bd9c0e" stroke="#bd9c0e" stroke-width="1.51"/>
  <path d="M200,-104L52,-102L133,-90Z" fill="#c2a10e" stroke="#c2a10e" stroke-width="1.51"/>
  <path d="M1546,-13L1539,-89L1475,-25Z" fill="#dcc476" stroke="#dcc476" stroke-width="1.51"/>
  <path d="M1555,73L1539,-89L1546,-13Z" fill="#dcc476" stroke="#dcc476" stroke-width="1.51"/>
  <path d="M-33,208L39,131L-42,133Z" fill="#d4b019" stroke="#d4b019" stroke-width="1.51"/>
  <path d="M1541,686L1539,605L1481,628Z" fill="#fcf4cf" stroke="#fcf4cf" stroke-width="1.51"/>
  <path d="M1546,532L1539,605L1562,469Z" fill="#fcf1c3" stroke="#fcf1c3" stroke-width="1.51"/>
  <path d="M-30,71L40,57L-44,-26Z" fill="#bd9d0e" stroke="#bd9d0e" stroke-width="1.51"/>
  <path d="M-44,-26L40,57L49,-14Z" fill="#b8990d" stroke="#b8990d" stroke-width="1.51"/>
  <path d="M-30,71L-42,133L39,131Z" fill="#d1ad0f" stroke="#d1ad0f" stroke-width="1.51"/>
  <path d="M-119,295L-102,377L-30,296Z" fill="#d6b83c" stroke="#d6b83c" stroke-width="1.51"/>
  <path d="M-102,377L-33,448L-19,374Z" fill="#d7bb4d" stroke="#d7bb4d" stroke-width="1.51"/>
  <path d="M-19,374L-33,448L55,389Z" fill="#d7bb4e" stroke="#d7bb4e" stroke-width="1.51"/>
  <path d="M-102,377L-19,374L-30,296Z" fill="#d6b942" stroke="#d6b942" stroke-width="1.51"/>
  <path d="M57,621L55,703L137,628Z" fill="#e5cb78" stroke="#e5cb78" stroke-width="1.51"/>
  <path d="M134,703L55,703L436,705Z" fill="#f3d67c" stroke="#f3d67c" stroke-width="1.51"/>
  <path d="M-27,627L55,703L57,621Z" fill="#dfc677" stroke="#dfc677" stroke-width="1.51"/>
  <path d="M1479,701L1541,686L1481,628Z" fill="#fcf4cf" stroke="#fcf4cf" stroke-width="1.51"/>
  <path d="M1539,605L1541,686L1562,469Z" fill="#fcf3cd" stroke="#fcf3cd" stroke-width="1.51"/>
  <path d="M-33,448L-26,542L48,525Z" fill="#dabf63" stroke="#dabf63" stroke-width="1.51"/>
  <path d="M52,-102L-44,-26L49,-14Z" fill="#b7970d" stroke="#b7970d" stroke-width="1.51"/>
  <path d="M-107,153L-33,208L-42,133Z" fill="#d4b11b" stroke="#d4b11b" stroke-width="1.51"/>
  <path d="M-26,542L-27,627L57,621Z" fill="#dcc475" stroke="#dcc475" stroke-width="1.51"/>
  <path d="M-111,622L-27,627L-26,542Z" fill="#dcc475" stroke="#dcc475" stroke-width="1.51"/>
  <path d="M-33,448L-111,528L-26,542Z" fill="#dabf63" stroke="#dabf63" stroke-width="1.51"/>
  <path d="M-110,231L-30,296L-33,208Z" fill="#d5b42b" stroke="#d5b42b" stroke-width="1.51"/>
  <path d="M-110,231L-33,208L-107,153Z" fill="#d4b222" stroke="#d4b222" stroke-width="1.51"/>
  <path d="M-107,153L-42,133L-106,66Z" fill="#d3ae0f" stroke="#d3ae0f" stroke-width="1.51"/>
  <path d="M-106,66L-42,133L-30,71Z" fill="#cba80f" stroke="#cba80f" stroke-width="1.51"/>
  <path d="M-44,-26L-106,66L-30,71Z" fill="#be9d0e" stroke="#be9d0e" stroke-width="1.51"/>
  <path d="M52,-102L-43,-98L-44,-26Z" fill="#b5960d" stroke="#b5960d" stroke-width="1.51"/>
  <path d="M-107,153L-119,295L-110,231Z" fill="#d5b427" stroke="#d5b427" stroke-width="1.51"/>
  <path d="M-110,231L-119,295L-30,296Z" fill="#d5b532" stroke="#d5b532" stroke-width="1.51"/>
  <path d="M-107,153L-122,-19L-119,295Z" fill="#d4b016" stroke="#d4b016" stroke-width="1.51"/>
  <path d="M-122,-19L-106,66L-44,-26Z" fill="#b6970d" stroke="#b6970d" stroke-width="1.51"/>
  <path d="M-119,295L-120,454L-102,377Z" fill="#d7ba48" stroke="#d7ba48" stroke-width="1.51"/>
  <path d="M-102,377L-120,454L-33,448Z" fill="#d8bc53" stroke="#d8bc53" stroke-width="1.51"/>
  <path d="M-27,627L-40,695L55,703Z" fill="#dcc476" stroke="#dcc476" stroke-width="1.51"/>
  <path d="M-111,622L-40,695L-27,627Z" fill="#dcc476" stroke="#dcc476" stroke-width="1.51"/>
  <path d="M-120,454L-111,528L-33,448Z" fill="#d9bf5d" stroke="#d9bf5d" stroke-width="1.51"/>
  <path d="M-106,66L-122,-19L-107,153Z" fill="#c5a30e" stroke="#c5a30e" stroke-width="1.51"/>
  <path d="M-119,295L-122,-19L-120,454Z" fill="#d5b42b" stroke="#d5b42b" stroke-width="1.51"/>
  <path d="M-121,-102L-122,-19L-44,-26Z" fill="#b5960d" stroke="#b5960d" stroke-width="1.51"/>
  <path d="M-120,454L-111,622L-111,528Z" fill="#dac169" stroke="#dac169" stroke-width="1.51"/>
  <path d="M-111,528L-111,622L-26,542Z" fill="#dbc26f" stroke="#dbc26f" stroke-width="1.51"/>
  <path d="M-43,-98L-121,-102L-44,-26Z" fill="#b5960d" stroke="#b5960d" stroke-width="1.51"/>
  <path d="M52,-102L-121,-102L-43,-98Z" fill="#b5960d" stroke="#b5960d" stroke-width="1.51"/>
  <path d="M200,-104L-121,-102L52,-102Z" fill="#b9990d" stroke="#b9990d" stroke-width="1.51"/>
  <path d="M510,-108L-121,-102L200,-104Z" fill="#c9a70f" stroke="#c9a70f" stroke-width="1.51"/>
  <path d="M-111,622L-100,698L-40,695Z" fill="#dcc476" stroke="#dcc476" stroke-width="1.51"/>
  <path d="M-40,695L-100,698L55,703Z" fill="#dcc476" stroke="#dcc476" stroke-width="1.51"/>
</svg>